<?xml version="1.0" encoding="UTF-8" standalone="no"?>
<!-- Generator: Adobe Illustrator 10.0, SVG Export Plug-In . SVG Version: 3.0.0 Build 77)  -->

<svg
   xmlns:i="http://ns.adobe.com/AdobeIllustrator/10.0/"
   xmlns:dc="http://purl.org/dc/elements/1.1/"
   xmlns:cc="http://creativecommons.org/ns#"
   xmlns:rdf="http://www.w3.org/1999/02/22-rdf-syntax-ns#"
   xmlns:svg="http://www.w3.org/2000/svg"
   xmlns="http://www.w3.org/2000/svg"
   xmlns:sodipodi="http://sodipodi.sourceforge.net/DTD/sodipodi-0.dtd"
   xmlns:inkscape="http://www.inkscape.org/namespaces/inkscape"
   i:rulerOrigin="0 0"
   i:viewOrigin="88.9985 632"
   space="preserve"
   i:pageBounds="0 792 612 0"
   viewBox="0 0 433.55332 489.54847"
   id="svg6592"
   version="1.1"
   inkscape:version="0.91 r13725"
   sodipodi:docname="simplediploma.svg"
   width="433.55331"
   height="489.54846">
  <defs
     id="defs6613">
    <filter
       inkscape:collect="always"
       style="color-interpolation-filters:sRGB"
       id="filter8409"
       x="-0.021273164"
       width="1.0425463"
       y="-0.025756102"
       height="1.0515122">
      <feGaussianBlur
         inkscape:collect="always"
         stdDeviation="0.79252315"
         id="feGaussianBlur8411" />
    </filter>
  </defs>
  <sodipodi:namedview
     pagecolor="#ffffff"
     bordercolor="#666666"
     borderopacity="1"
     objecttolerance="10"
     gridtolerance="10"
     guidetolerance="10"
     inkscape:pageopacity="0"
     inkscape:pageshadow="2"
     inkscape:window-width="1916"
     inkscape:window-height="1035"
     id="namedview6611"
     showgrid="false"
     inkscape:zoom="0.46492271"
     inkscape:cx="277.60754"
     inkscape:cy="210.86791"
     inkscape:window-x="4"
     inkscape:window-y="1"
     inkscape:window-maximized="1"
     inkscape:current-layer="g8183"
     fit-margin-top="0"
     fit-margin-left="0"
     fit-margin-right="0"
     fit-margin-bottom="0" />
  <metadata
     id="metadata6609">
    <rdf:RDF>
      <cc:Work>
        <dc:format>image/svg+xml</dc:format>
        <dc:type
           rdf:resource="http://purl.org/dc/dcmitype/StillImage" />
        <cc:license
           rdf:resource="http://creativecommons.org/publicdomain/zero/1.0/" />
        <dc:publisher>
          <cc:Agent
             rdf:about="http://openclipart.org/">
            <dc:title></dc:title>
          </cc:Agent>
        </dc:publisher>
        <dc:title></dc:title>
        <dc:date></dc:date>
        <dc:description />
        <dc:source></dc:source>
        <dc:creator>
          <cc:Agent>
            <dc:title>j4p4n</dc:title>
          </cc:Agent>
        </dc:creator>
        <dc:subject>
          <rdf:Bag>
            <rdf:li>background</rdf:li>
            <rdf:li>border</rdf:li>
            <rdf:li>paper</rdf:li>
            <rdf:li>parchment</rdf:li>
            <rdf:li>scroll</rdf:li>
            <rdf:li>diploma</rdf:li>
          </rdf:Bag>
        </dc:subject>
      </cc:Work>
      <cc:License
         rdf:about="http://creativecommons.org/publicdomain/zero/1.0/">
        <cc:permits
           rdf:resource="http://creativecommons.org/ns#Reproduction" />
        <cc:permits
           rdf:resource="http://creativecommons.org/ns#Distribution" />
        <cc:permits
           rdf:resource="http://creativecommons.org/ns#DerivativeWorks" />
      </cc:License>
    </rdf:RDF>
  </metadata>
  <g
     id="g8183"
     transform="translate(0.02792936,0.00768984)">
    <g
       id="g8414">
      <g
         id="Layer_1"
         i:knockout="Off"
         i:rgbTrio="#4F008000FFFF"
         i:layer="yes"
         i:dimmedPercent="50">
        <g
           i:knockout="Off"
           id="g6595">
          <path
             style="stroke:#000000;stroke-width:0.036;stroke-miterlimit:10"
             d="M 85.702,65.43 C 77.386,62.766 71.338,59.454 67.27,54.954 c -4.068,-4.608 -5.04,-10.188 -5.688,-16.2 -0.72,-6.048 -2.268,-14.652 1.584,-19.692 3.816,-5.148 11.628,-7.92 20.952,-10.8 9.216,-3.096 14.76,-6.768 33.984,-6.984 19.296,-0.18 56.124,4.932 80.352,6.048 23.976,1.044 36.685,1.476 62.567,0.324 25.885,-1.332 65.664,-7.488 91.152,-7.632 25.271,-0.108 46.332,0.864 59.725,6.66 13.176,5.724 16.02,13.212 19.367,27.324 3.205,13.968 2.664,39.096 0.324,56.232 -2.521,17.063 -11.879,30.132 -14.615,45.72 -2.771,15.552 0.719,24.696 -1.584,47.016 -2.484,22.392 -8.894,64.583 -12.42,86.04 -3.564,21.204 -8.965,25.74 -8.568,40.824 0.396,14.977 7.164,35.244 11.123,48.601 3.889,13.213 11.197,20.231 12.062,30.637 0.647,10.296 -1.367,22.896 -7.597,31.14 -6.371,8.064 -13.606,10.872 -29.881,17.46 -16.523,6.518 -43.703,17.784 -67.643,21.602 -23.978,3.636 -47.197,1.618 -74.953,0.61 -28.043,-1.15 -66.744,-6.768 -90.828,-6.982 -23.976,-0.182 -33.336,2.23 -52.092,5.724 -18.936,3.348 -45,13.572 -60.012,14.292 -14.904,0.468 -23.292,-3.024 -28.908,-10.476 -5.652,-7.634 -6.768,-24.842 -4.752,-33.984 1.98,-9.18 7.704,-14.76 16.2,-20.34 8.388,-5.58 19.62,-9.864 33.984,-12.996 0.432,-22.464 1.692,-47.196 3.78,-75.601 2.052,-28.477 3.348,-63.539 8.604,-93.671 5.22,-30.24 17.82,-64.368 22.536,-86.004 4.536,-21.672 5.076,-30.024 5.076,-42.552 C 90.989,84.696 89.189,74.4 85.697,65.436 Z"
             i:knockout="Off"
             id="path6597"
             inkscape:connector-curvature="0" />
          <path
             style="fill:#e8e4d4;stroke:#000000;stroke-width:0.036;stroke-miterlimit:10"
             d="M 101.69,63.918 C 95.318,64.53 89.81,64.206 84.878,62.946 79.874,61.578 75.554,59.49 72.206,55.998 c -3.384,-3.6 -6.192,-8.64 -7.308,-14.292 -1.224,-5.868 -2.88,-14.832 0.324,-19.944 3.132,-5.148 9.72,-7.488 18.396,-10.476 8.568,-3.132 18.108,-7.092 32.94,-7.596 14.868,-0.432 36.648,3.42 55.476,4.752 18.72,1.152 37.548,2.412 56.089,2.52 18.468,-0.036 34.668,-0.72 53.892,-2.196 19.116,-1.548 43.991,-5.76 60.192,-6.66 16.127,-1.008 27.791,-0.648 35.818,0.936 -4.643,6.732 -7.451,13.392 -8.566,19.98 -1.151,6.588 -0.145,13.032 1.906,19.332 2.053,6.264 5.293,11.988 10.152,17.748 -5.832,-3.708 -21.023,-5.976 -46.26,-6.66 -25.523,-0.792 -78.48,1.296 -104.58,2.231 -25.957,0.648 -28.873,1.548 -50.4,2.844 -21.75,1.333 -47.49,3.133 -78.59,5.401 z"
             i:knockout="Off"
             id="path6599"
             inkscape:connector-curvature="0" />
          <path
             style="fill:#e8e4d4;stroke:#000000;stroke-width:0.036;stroke-miterlimit:10"
             d="m 374.46,33.462 35.496,-5.04 c -0.108,7.488 -1.01,13.356 -2.846,18.036 -1.906,4.572 -5.256,7.38 -8.244,9.54 -3.203,2.124 -6.729,4.428 -10.149,3.168 -3.457,-1.476 -7.813,-6.804 -10.152,-11.124 -2.42,-4.392 -3.79,-9.108 -4.11,-14.58 z"
             i:knockout="Off"
             id="path6601"
             inkscape:connector-curvature="0" />
          <path
             style="fill:#e8e4d4;stroke:#000000;stroke-width:0.036;stroke-miterlimit:10"
             d="m 374.06,30.222 c -1.08,-3.852 -0.793,-7.812 0.719,-12.276 1.478,-4.464 4.178,-9.216 8.244,-14.256 11.557,1.008 20.305,2.808 26.93,5.4 6.479,2.484 8.496,3.492 12.023,9.828 3.42,6.228 7.416,15.48 8.496,27.468 0.971,11.952 -0.613,32.22 -2.521,43.74 -2.053,11.304 -6.553,16.344 -9.217,24.408 -2.735,7.884 -5.473,14.58 -6.66,23.436 -1.188,8.928 -0.035,20.232 -0.287,29.484 -0.323,8.964 -0.434,14.796 -1.584,24.732 -1.368,10.008 -4.141,22.14 -5.94,34.452 -1.765,12.276 -2.521,24.948 -4.787,38.016 -2.484,12.924 -8.568,26.46 -9.504,38.664 -0.865,12.06 1.619,23.11 4.139,33.3 2.449,10.151 6.949,19.151 10.152,27 3.024,7.56 6.588,12.492 8.209,18.684 1.477,6.229 1.979,12.456 0.971,18.396 -1.26,5.903 -3.887,11.628 -7.596,16.487 -3.707,4.681 -9.539,9.035 -14.291,11.699 -4.824,2.558 -10.008,4.104 -14.58,3.816 -4.789,-0.36 -10.008,-1.8 -13.285,-5.725 -3.238,-4.031 -5.256,-10.151 -6.047,-18.359 4.393,-3.276 9.324,-5.58 15.229,-7.309 5.867,-1.729 12.275,-2.628 19.654,-2.845 0.9,-10.188 0.324,-18.323 -1.584,-24.695 -2.123,-6.407 -3.383,-10.943 -10.149,-13.319 -6.878,-2.448 -14.689,-3.889 -30.099,-1.26 -15.588,2.556 -41.291,11.23 -62.135,16.451 -20.844,5.111 -41.041,11.447 -62.1,14.292 -21.241,2.663 -44.569,2.053 -64.009,2.195 -19.332,0.036 -33.768,-1.548 -51.66,-1.26 -18.072,0.324 -36.396,1.332 -55.8,3.168 0.144,-10.656 0.936,-26.964 2.232,-49.752 1.296,-22.968 2.052,-58.464 5.724,-86.221 3.636,-27.899 10.908,-56.879 15.84,-78.731 4.752,-21.708 10.332,-36.612 12.996,-50.688 2.592,-14.148 3.024,-22.932 2.844,-33.3 -0.252,-10.44 -1.584,-19.908 -4.14,-28.836 6.84,0.252 19.08,-0.216 37.404,-1.26 18.396,-1.224 49.356,-4.176 71.64,-5.4 22.141,-1.26 42.805,-1.439 60.192,-1.908 17.207,-0.648 29.699,-0.972 42.479,-1.26 12.563,-0.396 21.06,-1.008 33.265,-0.324 12.239,0.72 29.123,3.6 39.526,4.608 10.188,1.008 15.48,3.888 21.564,1.26 6.012,-2.844 12.023,-11.304 14.58,-17.748 2.412,-6.516 2.412,-13.356 0,-20.916 -12.32,2.202 -24.67,4.434 -37.05,6.666 z"
             i:knockout="Off"
             id="path6603"
             inkscape:connector-curvature="0" />
          <path
             style="fill:#e8e4d4;stroke:#000000;stroke-width:0.036;stroke-miterlimit:10"
             d="m 388.97,395.37 c -3.097,-0.288 -7.164,0.396 -12.349,1.908 -5.221,1.512 -11.412,3.996 -18.721,7.308 -1.152,-8.028 -1.369,-15.084 -0.648,-21.563 0.722,-6.589 2.269,-13.536 4.789,-17.102 2.447,-3.492 6.658,-4.5 10.115,-4.14 3.42,0.358 7.451,2.448 10.152,5.724 2.52,3.024 3.887,7.992 5.076,12.672 1.03,4.68 1.61,9.61 1.58,15.19 z"
             i:knockout="Off"
             id="path6605"
             inkscape:connector-curvature="0" />
          <path
             style="fill:#e8e4d4;stroke:#000000;stroke-width:0.036;stroke-miterlimit:10"
             d="m 357.25,362.43 c -3.852,-0.216 -10.618,0.9 -20.592,3.492 -10.045,2.521 -21.924,7.2 -38.987,11.7 -17.316,4.464 -41.4,11.844 -63.359,14.904 -21.997,2.88 -44.172,2.159 -67.5,2.556 -23.436,0.252 -53.496,-1.26 -71.856,-0.647 -18.324,0.433 -26.136,1.801 -37.728,4.104 -11.808,2.34 -23.724,5.76 -32.004,9.828 -8.352,3.815 -13.536,7.992 -17.1,13.644 -3.492,5.762 -4.248,13.394 -3.816,20.27 0.252,6.624 1.98,15.3 6.012,19.8 3.888,4.464 5.832,7.668 18.072,6.984 12.384,-0.9 39.024,-8.604 55.476,-11.736 16.236,-3.24 26.208,-5.688 42.12,-6.948 16.056,-1.26 35.46,-1.224 52.92,-0.324 17.28,0.864 34.02,3.96 50.076,5.4 15.84,1.296 29.557,2.916 45.035,2.52 15.445,-0.538 31.176,-1.584 47.197,-5.074 15.946,-3.638 31.68,-8.894 47.879,-16.164 -6.732,-5.004 -11.556,-10.766 -14.615,-17.425 -3.168,-6.659 -4.285,-13.141 -3.781,-22.5 0.5,-9.57 2.55,-20.83 6.55,-34.37 z"
             i:knockout="Off"
             id="path6607"
             inkscape:connector-curvature="0" />
        </g>
      </g>
      <path
         style="fill:#cd3838;fill-opacity:1;fill-rule:evenodd;stroke:none;stroke-width:1px;stroke-linecap:butt;stroke-linejoin:miter;stroke-opacity:1"
         d="m 291.13477,290.31055 -3.90039,1.77148 -15.95704,10.99414 -8.15625,19.50391 3.19141,14.53906 11.86133,16.37891 -22.14453,55.96093 -24.11524,46.8086 -3.90039,13.47461 0.70899,6.73828 1.77343,0.35351 17.37696,-14.89257 9.92773,-7.80079 4.25586,7.80079 2.48242,17.02148 3.90039,-1.77344 7.80078,-20.56836 4.25586,-47.87109 11.34766,-15.60352 3.90039,18.79493 13.47656,60.99218 -1.06445,13.47461 6.38281,-4.2539 4.25586,-4.96485 3.19141,-15.24804 3.54492,12.41015 12.05664,9.57617 6.0293,-0.35546 2.48242,-22.69532 -8.15625,-20.5664 -7.0918,-40.42578 -7.80273,-16.66797 -6.73633,-10.63672 -2.40039,-15.5918 c 1.20439,-0.58894 2.36533,-1.28266 3.46289,-2.13867 l 5.67383,-13.47656 c 6.97356,-12.20439 -1.55189,-20.53239 -4.96289,-30.14063 l -7.80274,-13.47656 -12.41015,-5.31836 -6.73828,-2.12695 z"
         id="path7183"
         inkscape:connector-curvature="0" />
      <path
         style="opacity:1;fill:#000000;fill-opacity:1;stroke:none;stroke-width:2;stroke-linecap:round;stroke-linejoin:round;stroke-miterlimit:4;stroke-dasharray:none;stroke-opacity:1"
         d="m 289.25195,290.22852 c -1.20263,1.29324 -7.35606,0.35317 -3.01073,0.91416 -3.41078,-0.19775 -6.76584,1.02885 -8.6142,4.08509 -2.42698,3.06153 -6.24161,4.6245 -8.47983,7.92007 -2.72516,3.28269 -4.78854,7.13613 -6.54771,11.01851 -1.01721,4.28477 -3.50135,8.54415 -2.37464,13.06912 -0.61611,3.90456 1.17441,7.62211 3.56034,10.58927 2.94691,4.69753 5.04365,10.01377 9.24922,13.80777 2.57728,3.48346 6.12596,6.08844 10.16229,7.67301 4.34099,1.02482 9.06963,0.69522 13.54771,1.6135 3.37374,-0.39685 6.92509,0.0375 10.12152,-1.17735 3.85887,-0.69776 8.14729,-0.27729 11.06039,-3.40475 2.77669,-1.6485 5.69036,-3.49742 6.66788,-6.77756 1.30465,-3.50728 2.27132,-7.2609 2.36834,-10.99722 -0.4894,-4.79662 0.15696,-9.63533 -0.33651,-14.41378 -1.14765,-2.45631 -2.36655,-4.92428 -2.75316,-7.68606 -1.23596,-7.56393 -6.71746,-13.33962 -11.14709,-19.24821 -3.24199,-4.29028 -9.07613,-4.68554 -13.83238,-6.24982 -3.3309,-1.42334 -6.43579,0.33657 -9.64144,-0.73575 z m 10,70.68945 c 1.67683,-0.0367 3.90049,-0.13612 1.03589,-0.0355 l -0.51792,0.0183 -0.51797,0.0172 z m -7.3457,-70.03906 c -0.66105,0.80056 -0.56696,-0.6255 0,0 z m -9.77148,1.00781 c 1.93314,-0.054 2.41311,0.12096 0,0 z m 8.52343,0.0391 c 3.79283,-0.25035 7.11773,1.70554 10.5213,2.95671 4.44948,0.12502 7.01945,3.65075 9.19015,7.0544 2.51481,3.54853 5.52847,6.82374 6.78881,11.0914 1.04472,4.21453 2.36329,8.13131 3.82429,12.18246 0.3812,3.54767 -0.13374,7.12648 0.18043,10.6974 0.12364,5.61567 -0.62641,11.64717 -3.98872,16.30773 -3.07871,3.17325 -7.03967,5.5278 -11.56619,5.82777 -4.25266,1.71766 -8.79249,1.56964 -13.25472,0.81825 -4.19532,0.29867 -8.03865,-2.20228 -11.15143,-4.74348 -2.35452,-2.80729 -4.96625,-5.41717 -7.1175,-8.38261 -2.22358,-3.66108 -3.85378,-7.67717 -6.53183,-11.05528 -2.34999,-4.03378 -2.02663,-8.93205 -1.40006,-13.37824 1.59572,-6.25516 4.21436,-12.37599 8.38345,-17.35539 4.53882,-4.97061 9.98781,-9.23329 16.12202,-12.02112 z m 6.64453,0.93164 -0.1043,0.0195 0.1043,-0.0195 z m 5.26563,0.83789 c 1.59795,0.0559 0.36858,0.842 0,0 z m 11.66797,64.70313 c 2.79769,-0.47523 -0.49401,0.33146 0,0 z m -14.03125,1.58594 c 1.04962,-0.12833 0.89677,0.14548 0,0 z"
         id="path7163"
         inkscape:connector-curvature="0" />
      <path
         style="opacity:1;fill:#000000;fill-opacity:1;stroke:none;stroke-width:2;stroke-linecap:round;stroke-linejoin:round;stroke-miterlimit:4;stroke-dasharray:none;stroke-opacity:1"
         d="m 281.54259,353.95236 c -3.52475,17.49188 -12.99482,32.66859 -19.81394,48.92289 -5.46153,18.71604 -17.19446,34.62004 -25.94835,51.75166 -5.61195,5.23669 -2.32461,23.03213 -7.01548,21.74496 10.76198,-7.06725 18.47295,-19.78396 29.6619,-25.10476 9.18866,6.13009 7.55816,19.80222 7.26079,29.64503 -7.15825,-1.37595 5.98641,-10.94962 5.37788,-15.98507 5.79706,-14.38253 6.1704,-30.39458 7.66073,-45.62261 0.0476,-13.6337 6.99854,-25.70262 14.37038,-36.60625 5.91092,-6.37547 2.44861,-24.79703 10.92405,-23.70225 2.99308,13.4392 -7.63543,26.70166 -13.75704,38.50982 -7.9399,13.59875 -4.71123,29.95156 -8.30408,44.69505 -0.95564,13.52661 -4.8743,27.57841 -13.84701,37.9108 -12.77706,5.76709 -5.20824,-16.46761 -10.62246,-23.42191 -0.60136,-8.78736 4.65295,-1.94862 -2.6492,1.72286 -6.99429,7.42463 -16.12087,14.98344 -24.58928,20.40447 -11.59244,-5.80467 -0.31515,-22.84842 3.55819,-31.32281 8.96936,-15.71198 18.22784,-31.33327 23.78684,-48.66803 5.63129,-14.26595 15.06932,-27.26414 17.15159,-42.75598 1.35556,-2.35317 4.44636,-2.57943 6.79449,-2.11787 z"
         id="path7167"
         inkscape:connector-curvature="0" />
      <path
         style="opacity:1;fill:#000000;fill-opacity:1;stroke:none;stroke-width:2;stroke-linecap:round;stroke-linejoin:round;stroke-miterlimit:4;stroke-dasharray:none;stroke-opacity:1"
         d="m 295.06529,388.25451 c 4.3521,19.44913 5.8635,39.44107 11.72365,58.569 3.65133,13.61727 9.4937,29.66807 2.25393,42.71725 -6.30129,-4.72505 10.67074,-12.3158 9.27625,-21.37593 -2.71594,-5.24474 3.60638,-17.81538 7.70992,-8.36915 -5.246,12.80105 11.3656,18.33479 17.91769,25.69361 -5.53532,5.80275 -0.96893,-12.58906 -1.03373,-16.78956 2.33599,-15.68971 -9.27984,-28.33102 -10.6731,-43.4423 -2.5309,-9.65065 -3.38541,-19.73513 -6.65937,-29.09632 -4.31466,-9.79706 -10.13473,-18.80585 -12.1345,-29.34672 0.71981,-3.7629 -4.67322,-13.17564 2.33327,-10.29385 -5.33483,-2.72508 7.90918,0.1039 3.20834,6.06413 -0.68716,12.46283 9.42234,22.46304 12.50041,34.3276 5.25027,16.97376 6.05183,35.46505 13.96755,51.71321 5.80105,11.15874 2.71966,24.02279 1.33988,35.85397 -10.4706,6.08544 -19.81779,-8.59889 -26.68253,-14.68806 -5.58652,-6.73503 6.97157,-21.12219 4.60668,-6.65291 -0.71046,10.90182 -6.91625,22.22102 -17.23321,26.36311 -4.70036,-7.32523 1.47148,-18.96489 -2.16058,-27.95707 -4.51547,-11.51221 -6.0066,-23.95442 -9.53422,-35.77556 -0.73656,-12.02111 -6.1277,-27.51126 -5.0423,-37.57275 l 2.20188,0.20129 2.11409,-0.14296 0,-3e-5 z"
         id="path7169"
         inkscape:connector-curvature="0" />
      <g
         id="g7608"
         style="font-style:normal;font-weight:normal;font-size:40px;line-height:125%;font-family:sans-serif;text-align:center;letter-spacing:0px;word-spacing:0px;text-anchor:middle;fill:#cec9b5;fill-opacity:1;stroke:none;stroke-width:1px;stroke-linecap:butt;stroke-linejoin:miter;stroke-opacity:1"
         transform="matrix(1,0,-0.09952026,1,0,0)">
        <path
           style="font-style:normal;font-variant:normal;font-weight:bold;font-stretch:normal;font-family:sans-serif;-inkscape-font-specification:'sans-serif Bold';fill:#cec9b5;fill-opacity:1"
           d="m 152.55087,113.47047 c 0.18839,11.96504 -16.27372,13.8798 -23.28736,6.68868 -5.00992,-6.19754 -5.9534,-21.205492 1.49102,-24.775497 6.71031,4.746287 -0.80339,24.191917 12.06164,20.984197 4.05005,-4.60234 -1.86016,-22.395215 9.14589,-16.997272 3.237,4.348512 -0.31994,9.338752 0.58881,14.099892 z"
           id="path7610"
           inkscape:connector-curvature="0" />
        <path
           style="font-style:normal;font-variant:normal;font-weight:bold;font-stretch:normal;font-family:sans-serif;-inkscape-font-specification:'sans-serif Bold';fill:#cec9b5;fill-opacity:1"
           d="m 185.94931,123.99782 c -9.74726,7.80979 -16.8121,-25.977706 -19.31707,-7.61477 -0.94665,16.2064 -13.67446,-8.34051 -7.2009,-14.58944 1.00104,-16.551233 18.27185,4.83419 18.42223,3.23477 -1.59335,-9.82935 11.37862,-10.451158 8.46208,0.13449 0.48689,6.28544 -0.86132,12.54948 -0.36634,18.83495 z"
           id="path7612"
           inkscape:connector-curvature="0" />
        <path
           style="font-style:normal;font-variant:normal;font-weight:bold;font-stretch:normal;font-family:sans-serif;-inkscape-font-specification:'sans-serif Bold';fill:#cec9b5;fill-opacity:1"
           d="m 209.1329,123.99782 c -5.30368,-0.41223 -22.66076,2.77926 -13.14426,-6.8129 0.90539,-7.69263 -4.53434,-30.540917 10.07966,-20.406787 0.91663,9.262427 -4.04382,20.441067 3.0646,27.219687 l 0,0 z"
           id="path7614"
           inkscape:connector-curvature="0" />
        <path
           style="font-style:normal;font-variant:normal;font-weight:bold;font-stretch:normal;font-family:sans-serif;-inkscape-font-specification:'sans-serif Bold';fill:#cec9b5;fill-opacity:1"
           d="m 241.65244,94.915787 c -3.53516,9.694013 -7.07031,19.388023 -10.60547,29.082033 -12.72774,0.51532 -20.07356,-23.29132 -13.62916,-28.994162 5.79464,3.566521 9.35078,23.994862 13.96266,7.944122 -0.0896,-5.74661 4.4411,-10.14766 10.27197,-8.031993 z"
           id="path7616"
           inkscape:connector-curvature="0" />
        <path
           style="font-style:normal;font-variant:normal;font-weight:bold;font-stretch:normal;font-family:sans-serif;-inkscape-font-specification:'sans-serif Bold';fill:#cec9b5;fill-opacity:1"
           d="m 266.86728,123.99782 c -7.01172,0 -14.02344,0 -21.03516,0 0,-9.69401 0,-19.38802 0,-29.082033 7.01172,0 14.02344,0 21.03516,0 1.16519,6.855113 -19.027,8.269363 -5.31407,10.778423 6.91645,3.61221 -17.5945,12.32285 -3.01055,12.75827 3.66802,-0.57886 11.93995,-0.61674 8.32462,5.54534 z"
           id="path7618"
           inkscape:connector-curvature="0" />
        <path
           style="font-style:normal;font-variant:normal;font-weight:bold;font-stretch:normal;font-family:sans-serif;-inkscape-font-specification:'sans-serif Bold';fill:#cec9b5;fill-opacity:1"
           d="m 289.48447,103.82204 c -6.09911,-13.625544 -12.12406,13.57414 -1.23911,1.34606 l 1.23911,-1.34606 z m 11.69922,20.17578 c -9.4552,2.5562 -18.66863,-13.75819 -24.7429,-3.32649 -7.89228,-7.4186 -5.32266,-25.649721 6.39443,-27.539671 16.89857,-0.120377 10.89589,17.729801 14.51955,27.797891 l 1.60134,1.63539 2.22758,1.43288 0,0 z"
           id="path7620"
           inkscape:connector-curvature="0" />
        <path
           style="font-style:normal;font-variant:normal;font-weight:bold;font-stretch:normal;font-family:sans-serif;-inkscape-font-specification:'sans-serif Bold';fill:#cec9b5;fill-opacity:1"
           d="m 327.70712,114.85719 c 4.66351,12.47854 -25.25718,12.36462 -19.31354,3.85113 19.47615,-1.33134 -14.50126,-11.1154 -1.49792,-20.008073 2.0975,-13.828287 29.10011,1.540703 10.75666,2.308833 -15.78454,5.6241 15.95292,4.92431 10.0548,13.84811 z"
           id="path7622"
           inkscape:connector-curvature="0" />
        <path
           style="font-style:normal;font-variant:normal;font-weight:bold;font-stretch:normal;font-family:sans-serif;-inkscape-font-specification:'sans-serif Bold';fill:#cec9b5;fill-opacity:1"
           d="m 348.5079,123.99782 c -5.30368,-0.41223 -22.66076,2.77926 -13.14426,-6.8129 0.90539,-7.69263 -4.53434,-30.540917 10.07966,-20.406787 0.91663,9.262427 -4.04382,20.441067 3.0646,27.219687 l 0,0 z"
           id="path7624"
           inkscape:connector-curvature="0" />
        <path
           style="font-style:normal;font-variant:normal;font-weight:bold;font-stretch:normal;font-family:sans-serif;-inkscape-font-specification:'sans-serif Bold';fill:#cec9b5;fill-opacity:1"
           d="m 377.41415,100.54079 c -15.37459,-6.156424 -3.47882,27.27635 -15.24187,19.24498 1.38848,-7.65889 -8.15168,-19.63338 -3.89379,-24.954339 6.06204,-1.141075 17.79401,-2.557641 19.13566,5.709359 z"
           id="path7626"
           inkscape:connector-curvature="0" />
        <path
           style="font-style:normal;font-variant:normal;font-weight:bold;font-stretch:normal;font-family:sans-serif;-inkscape-font-specification:'sans-serif Bold';fill:#cec9b5;fill-opacity:1"
           d="m 407.51181,94.915787 c -7.84529,6.299383 -6.52868,22.365513 -16.14827,24.914023 -3.04915,-5.8184 -12.31726,-20.656958 -5.67577,-23.60962 4.64914,4.92219 11.89369,10.14437 14.04773,-0.131778 1.51134,-3.099509 5.36065,-2.842882 7.77631,-1.172625 z"
           id="path7628"
           inkscape:connector-curvature="0" />
        <path
           style="font-size:22.5px;text-align:center;text-anchor:middle;fill:#cec9b5;fill-opacity:1"
           d="m 196.58652,141.4769 c -7.51449,-3.39732 -6.62562,17.38564 -8.44605,3.5604 -7.20931,-6.81316 5.24881,-8.43432 8.44605,-3.5604 z"
           id="path7630"
           inkscape:connector-curvature="0" />
        <path
           style="font-size:22.5px;text-align:center;text-anchor:middle;fill:#cec9b5;fill-opacity:1"
           d="m 208.90219,155.90195 c 2.57362,-11.38224 -11.71531,-4.78205 -10.74481,-5.87231 -2.29089,-15.74156 16.58128,-3.13888 10.74481,5.87231 z"
           id="path7632"
           inkscape:connector-curvature="0" />
        <path
           style="font-size:22.5px;text-align:center;text-anchor:middle;fill:#cec9b5;fill-opacity:1"
           d="m 215.09848,141.57577 c -6.45954,2.23149 1.59705,-6.17071 0,0 z m -0.13184,14.32618 c -7.38434,-7.31983 4.81396,-12.42135 0,0 z"
           id="path7634"
           inkscape:connector-curvature="0" />
        <path
           style="font-size:22.5px;text-align:center;text-anchor:middle;fill:#cec9b5;fill-opacity:1"
           d="m 227.84262,152.36435 c 1.70046,6.48742 -11.70033,0.52341 -3.16049,0.99419 -10.86674,0.64973 2.70135,-15.56413 -2.76643,-5.8373 1.92248,1.66882 5.11185,2.06432 5.92692,4.84311 z"
           id="path7636"
           inkscape:connector-curvature="0" />
        <path
           style="font-size:22.5px;text-align:center;text-anchor:middle;fill:#cec9b5;fill-opacity:1"
           d="m 240.89438,141.57577 c -6.45954,2.23149 1.59705,-6.17071 0,0 z m -0.13184,14.32618 c -7.38434,-7.31983 4.81396,-12.42135 0,0 z"
           id="path7638"
           inkscape:connector-curvature="0" />
        <path
           style="font-size:22.5px;text-align:center;text-anchor:middle;fill:#cec9b5;fill-opacity:1"
           d="m 253.63852,152.36435 c 1.70046,6.48743 -11.70035,0.52341 -3.1605,0.99419 -10.86673,0.6497 2.70136,-15.56413 -2.76643,-5.8373 1.92249,1.66882 5.11185,2.06433 5.92693,4.84311 z"
           id="path7640"
           inkscape:connector-curvature="0" />
        <path
           style="font-size:22.5px;text-align:center;text-anchor:middle;fill:#cec9b5;fill-opacity:1"
           d="m 274.00717,155.90195 c -13.54988,5.00882 -4.18318,-21.84042 1.23449,-6.40686 1.24247,2.38465 0.72265,4.68255 -1.23449,6.40686 z m -2.05444,-3.02124 c -2.70589,-8.73495 -5.94865,7.59443 0,0 z"
           id="path7642"
           inkscape:connector-curvature="0" />
        <path
           style="font-size:22.5px;text-align:center;text-anchor:middle;fill:#cec9b5;fill-opacity:1"
           d="m 296.67197,149.61777 c -1.5324,12.73254 -17.53042,3.87719 -9.49833,-4.55404 3.62224,-2.1801 10.21297,-0.70812 9.49833,4.55404 z m -2.13135,0.0549 c -5.93927,-10.70249 -4.30634,14.34453 0,0 z"
           id="path7644"
           inkscape:connector-curvature="0" />
        <path
           style="font-size:22.5px;text-align:center;text-anchor:middle;fill:#cec9b5;fill-opacity:1"
           d="m 309.42709,155.90195 c -13.54988,5.00882 -4.18318,-21.84042 1.23449,-6.40686 1.24247,2.38465 0.72265,4.68255 -1.23449,6.40686 z m -2.05444,-3.02124 c -2.70586,-8.73497 -5.94865,7.59441 0,0 z"
           id="path7646"
           inkscape:connector-curvature="0" />
        <path
           style="font-size:22.5px;text-align:center;text-anchor:middle;fill:#cec9b5;fill-opacity:1"
           d="m 324.18173,149.61777 c -1.53241,12.73254 -17.53041,3.87717 -9.49831,-4.55404 3.62224,-2.1801 10.21298,-0.70812 9.49831,4.55404 z m -2.13135,0.0549 c -5.93927,-10.7025 -4.30632,14.34452 0,0 z"
           id="path7648"
           inkscape:connector-curvature="0" />
        <path
           style="font-size:22.5px;text-align:center;text-anchor:middle;fill:#cec9b5;fill-opacity:1"
           d="m 337.67294,149.98032 c -7.68984,-4.48994 -1.7503,13.23011 -9.72943,3.9651 -3.41886,-8.13583 9.91245,-16.93979 9.72943,-3.9651 z m -2.01049,-1.58204 c -3.11683,-9.85222 -9.80668,5.37571 0,0 z"
           id="path7650"
           inkscape:connector-curvature="0" />
        <path
           style="font-size:22.5px;text-align:center;text-anchor:middle;fill:#cec9b5;fill-opacity:1"
           d="m 348.46152,145.88241 c -4.75593,2.41978 -10.21915,9.66186 -7.21071,-0.4848 1.64697,-2.13916 6.53987,-2.963 7.21071,0.4848 z"
           id="path7652"
           inkscape:connector-curvature="0" />
        <path
           style="font-size:22.5px;text-align:center;text-anchor:middle;fill:#cec9b5;fill-opacity:1"
           d="m 157.50815,183.91708 c -11.71052,4.69966 -2.75192,-21.73723 -4.17338,-4.93569 0.76267,2.0679 2.31076,3.78888 4.17338,4.93569 z"
           id="path7654"
           inkscape:connector-curvature="0" />
        <path
           style="font-size:22.5px;text-align:center;text-anchor:middle;fill:#cec9b5;fill-opacity:1"
           d="m 170.27426,184.02695 c 2.57362,-11.38224 -11.71531,-4.78205 -10.74481,-5.87231 -2.29089,-15.74156 16.58128,-3.13888 10.74481,5.87231 z"
           id="path7656"
           inkscape:connector-curvature="0" />
        <path
           style="font-size:22.5px;text-align:center;text-anchor:middle;fill:#cec9b5;fill-opacity:1"
           d="m 183.78745,184.02695 c -13.54988,5.00883 -4.1832,-21.84042 1.23448,-6.40686 1.24246,2.38464 0.72266,4.68255 -1.23448,6.40686 z m -2.05445,-3.02124 c -2.70586,-8.73497 -5.94865,7.59441 0,0 z"
           id="path7658"
           inkscape:connector-curvature="0" />
        <path
           style="font-size:22.5px;text-align:center;text-anchor:middle;fill:#cec9b5;fill-opacity:1"
           d="m 194.11459,183.91708 c -11.71051,4.69965 -2.75193,-21.73722 -4.17337,-4.93569 0.76267,2.0679 2.31076,3.78887 4.17337,4.93569 z"
           id="path7660"
           inkscape:connector-curvature="0" />
        <path
           style="font-size:22.5px;text-align:center;text-anchor:middle;fill:#cec9b5;fill-opacity:1"
           d="m 213.29672,180.48935 c 1.70046,6.48742 -11.70033,0.52341 -3.16049,0.99419 -10.86674,0.64972 2.70135,-15.56413 -2.76643,-5.8373 1.92248,1.66882 5.11185,2.06432 5.92692,4.84311 z"
           id="path7662"
           inkscape:connector-curvature="0" />
        <path
           style="font-size:22.5px;text-align:center;text-anchor:middle;fill:#cec9b5;fill-opacity:1"
           d="m 226.48032,184.02695 c 2.57364,-11.38224 -11.71532,-4.78206 -10.74482,-5.87231 -2.29089,-15.74156 16.58128,-3.13888 10.74482,5.87231 z"
           id="path7664"
           inkscape:connector-curvature="0" />
        <path
           style="font-size:22.5px;text-align:center;text-anchor:middle;fill:#cec9b5;fill-opacity:1"
           d="m 240.91635,177.89658 c -3.01014,16.0258 -18.92615,-12.37723 -2.94358,-5.78929 1.95516,1.1735 3.21438,3.49728 2.94358,5.78929 z m -2.13135,0 c -3.71751,-12.47469 -7.02592,13.03242 -0.31348,0.50648 l 0.31348,-0.50648 z"
           id="path7666"
           inkscape:connector-curvature="0" />
        <path
           style="font-size:22.5px;text-align:center;text-anchor:middle;fill:#cec9b5;fill-opacity:1"
           d="m 259.56015,171.75522 c -0.76662,4.83827 -3.2081,17.30083 -7.85681,7.03106 -3.44822,5.11948 -10.33042,0.55668 -5.89653,-4.36944 -0.27493,7.52867 11.44441,-5.88816 10.11056,5.40569 1.29039,-2.33953 -0.8716,-8.64953 3.64278,-8.06731 z"
           id="path7668"
           inkscape:connector-curvature="0" />
        <path
           style="font-size:22.5px;text-align:center;text-anchor:middle;fill:#cec9b5;fill-opacity:1"
           d="m 271.30453,180.48935 c 1.70046,6.48743 -11.70034,0.52341 -3.16049,0.99419 -11.09756,-0.10347 3.64947,-15.6636 -3.20325,-5.41022 2.03694,1.28072 6.5809,1.02751 6.36374,4.41603 z"
           id="path7670"
           inkscape:connector-curvature="0" />
        <path
           style="font-size:22.5px;text-align:center;text-anchor:middle;fill:#cec9b5;fill-opacity:1"
           d="m 290.90414,180.48935 c 1.70046,6.48743 -11.70034,0.52341 -3.16049,0.99419 -11.09755,-0.10347 3.64945,-15.66361 -3.20324,-5.41022 2.03693,1.28072 6.58088,1.02752 6.36373,4.41603 z"
           id="path7672"
           inkscape:connector-curvature="0" />
        <path
           style="font-size:22.5px;text-align:center;text-anchor:middle;fill:#cec9b5;fill-opacity:1"
           d="m 304.28549,177.89658 c -3.00821,16.02551 -18.92884,-12.37435 -2.94681,-5.79 1.95598,1.17289 3.2203,3.49643 2.94681,5.79 z m -2.13135,0 c -3.71751,-12.47469 -7.02592,13.03242 -0.31348,0.50648 l 0.31348,-0.50648 z"
           id="path7674"
           inkscape:connector-curvature="0" />
        <path
           style="font-size:22.5px;text-align:center;text-anchor:middle;fill:#cec9b5;fill-opacity:1"
           d="m 325.40121,184.02695 c 1.59818,-6.65741 -5.35699,-10.60425 -9.85348,-5.18052 -1.49476,-11.22981 -10.34592,8.45545 -7.23817,-3.24991 2.56724,-11.98286 23.85325,-0.78911 17.09165,8.43043 z"
           id="path7676"
           inkscape:connector-curvature="0" />
        <path
           style="font-size:22.5px;text-align:center;text-anchor:middle;fill:#cec9b5;fill-opacity:1"
           d="m 339.60654,178.10532 c -7.68985,-4.48996 -1.75029,13.23011 -9.72944,3.96511 -3.41886,-8.13583 9.91245,-16.9398 9.72944,-3.96511 z m -2.0105,-1.58204 c -3.11683,-9.85222 -9.80668,5.37571 0,0 z"
           id="path7678"
           inkscape:connector-curvature="0" />
        <path
           style="font-size:22.5px;text-align:center;text-anchor:middle;fill:#cec9b5;fill-opacity:1"
           d="m 353.19662,177.89658 c -3.00822,16.02552 -18.92884,-12.37437 -2.9468,-5.79 1.95597,1.1729 3.22029,3.49643 2.9468,5.79 z m -2.13134,0 c -3.71749,-12.4747 -7.02594,13.0324 -0.31348,0.50648 l 0.31348,-0.50648 z"
           id="path7680"
           inkscape:connector-curvature="0" />
        <path
           style="font-size:22.5px;text-align:center;text-anchor:middle;fill:#cec9b5;fill-opacity:1"
           d="m 366.66586,184.02695 c 1.30074,-6.5604 -5.32347,-10.39416 -10.29536,-5.92778 1.28907,-13.95256 16.21263,-2.66847 10.29536,5.92778 z"
           id="path7682"
           inkscape:connector-curvature="0" />
        <path
           style="font-size:22.5px;text-align:center;text-anchor:middle;fill:#cec9b5;fill-opacity:1"
           d="m 380.91513,178.10532 c -7.68984,-4.48993 -1.7503,13.2301 -9.72944,3.9651 -3.41886,-8.13583 9.91245,-16.93979 9.72944,-3.9651 z m -2.0105,-1.58204 c -3.11682,-9.85222 -9.80668,5.37571 0,0 z"
           id="path7684"
           inkscape:connector-curvature="0" />
        <path
           style="font-size:22.5px;text-align:center;text-anchor:middle;fill:#cec9b5;fill-opacity:1"
           d="m 158.01352,210.75668 c -5.93991,12.75289 -17.95452,-16.66107 -1.78713,-9.62702 3.21912,2.07033 2.85141,6.47007 1.78713,9.62702 z m -2.06543,-1.97754 c 4.36777,-11.3814 -14.62249,3.58604 -1.48684,0.36142 l 1.48684,-0.36142 z"
           id="path7686"
           inkscape:connector-curvature="0" />
        <path
           style="font-size:22.5px;text-align:center;text-anchor:middle;fill:#cec9b5;fill-opacity:1"
           d="m 169.73593,202.13241 c -4.75593,2.41975 -10.21916,9.66187 -7.21072,-0.48479 1.64697,-2.13916 6.53987,-2.963 7.21072,0.48479 z"
           id="path7688"
           inkscape:connector-curvature="0" />
        <path
           style="font-size:22.5px;text-align:center;text-anchor:middle;fill:#cec9b5;fill-opacity:1"
           d="m 181.23862,212.15195 c -13.54987,5.00884 -4.1832,-21.84041 1.23448,-6.40686 1.24246,2.38464 0.72266,4.68255 -1.23448,6.40686 z m -2.05445,-3.02124 c -2.70588,-8.73494 -5.94865,7.59441 0,0 z"
           id="path7690"
           inkscape:connector-curvature="0" />
        <path
           style="font-size:22.5px;text-align:center;text-anchor:middle;fill:#cec9b5;fill-opacity:1"
           d="m 195.14731,212.15195 c -14.70376,7.59134 -7.17391,-24.04847 0.11424,-11.05685 0.0797,3.68686 -0.3334,7.37095 -0.11424,11.05685 z m -2.06543,-3.02124 c 2.70935,-14.17781 -11.17489,5.78834 0,0 z"
           id="path7692"
           inkscape:connector-curvature="0" />
        <path
           style="font-size:22.5px;text-align:center;text-anchor:middle;fill:#cec9b5;fill-opacity:1"
           d="m 209.38559,212.15195 c -6.54425,7.46198 -13.10976,-14.49043 -5.07575,-3.83 7.81483,-9.96539 4.63124,-3.80295 5.07575,3.83 z"
           id="path7694"
           inkscape:connector-curvature="0" />
        <path
           style="font-size:22.5px;text-align:center;text-anchor:middle;fill:#cec9b5;fill-opacity:1"
           d="m 222.98666,212.15195 c -13.54988,5.00882 -4.18318,-21.84042 1.23449,-6.40686 1.24247,2.38465 0.72265,4.68255 -1.23449,6.40686 z m -2.05444,-3.02124 c -2.70586,-8.73497 -5.94865,7.59441 0,0 z"
           id="path7696"
           inkscape:connector-curvature="0" />
        <path
           style="font-size:22.5px;text-align:center;text-anchor:middle;fill:#cec9b5;fill-opacity:1"
           d="m 233.31381,212.04208 c -11.71051,4.69965 -2.75193,-21.73722 -4.17337,-4.93569 0.76267,2.0679 2.31076,3.78887 4.17337,4.93569 z"
           id="path7698"
           inkscape:connector-curvature="0" />
        <path
           style="font-size:22.5px;text-align:center;text-anchor:middle;fill:#cec9b5;fill-opacity:1"
           d="m 246.09091,206.23032 c -7.68984,-4.48994 -1.7503,13.23011 -9.72943,3.9651 -3.41886,-8.13583 9.91245,-16.93979 9.72943,-3.9651 z m -2.0105,-1.58204 c -3.11682,-9.85222 -9.80668,5.37571 0,0 z"
           id="path7700"
           inkscape:connector-curvature="0" />
        <path
           style="font-size:22.5px;text-align:center;text-anchor:middle;fill:#cec9b5;fill-opacity:1"
           d="m 259.17563,212.15195 c -14.70376,7.59133 -7.17391,-24.04847 0.11424,-11.05685 0.0797,3.68686 -0.3334,7.37095 -0.11424,11.05685 z m -2.06543,-3.02124 c 2.70935,-14.17781 -11.17489,5.78834 0,0 z"
           id="path7702"
           inkscape:connector-curvature="0" />
        <path
           style="font-size:22.5px;text-align:center;text-anchor:middle;fill:#cec9b5;fill-opacity:1"
           d="m 266.61337,212.15195 c -7.68373,1.07847 3.03023,-6.67454 0,0 z"
           id="path7704"
           inkscape:connector-curvature="0" />
        <path
           style="font-size:22.5px;text-align:center;text-anchor:middle;fill:#cec9b5;fill-opacity:1"
           d="m 291.15683,197.7269 c -7.12376,-2.45095 -6.67865,16.37586 -8.55818,3.45204 -6.91038,-7.69711 4.37584,-7.75417 8.55818,-3.45204 z"
           id="path7706"
           inkscape:connector-curvature="0" />
        <path
           style="font-size:22.5px;text-align:center;text-anchor:middle;fill:#cec9b5;fill-opacity:1"
           d="m 303.4725,212.15195 c 2.57031,-11.37334 -11.68973,-4.79188 -10.73919,-5.87097 -2.23182,-15.77794 16.49041,-3.1788 10.73919,5.87097 z"
           id="path7708"
           inkscape:connector-curvature="0" />
        <path
           style="font-size:22.5px;text-align:center;text-anchor:middle;fill:#cec9b5;fill-opacity:1"
           d="m 317.72177,206.23032 c -7.68984,-4.48994 -1.7503,13.23011 -9.72944,3.9651 -3.41886,-8.13583 9.91245,-16.93979 9.72944,-3.9651 z m -2.0105,-1.58204 c -3.11682,-9.85222 -9.80668,5.37571 0,0 z"
           id="path7710"
           inkscape:connector-curvature="0" />
        <path
           style="font-size:22.5px;text-align:center;text-anchor:middle;fill:#cec9b5;fill-opacity:1"
           d="m 331.46567,199.88022 c -2.3877,5.59936 -4.77539,11.19873 -7.16309,16.79809 -1.06904,-5.75857 -4.47978,-17.02994 3.41971,-10.8515 0.94269,-1.94715 -0.0234,-7.09862 3.74338,-5.94659 z"
           id="path7712"
           inkscape:connector-curvature="0" />
        <path
           style="font-size:22.5px;text-align:center;text-anchor:middle;fill:#cec9b5;fill-opacity:1"
           d="m 351.61459,212.15195 c -13.54988,5.00882 -4.18318,-21.84042 1.23449,-6.40686 1.24247,2.38465 0.72265,4.68255 -1.23449,6.40686 z m -2.05444,-3.02124 c -2.70586,-8.73497 -5.94865,7.59441 0,0 z"
           id="path7714"
           inkscape:connector-curvature="0" />
        <path
           style="font-size:22.5px;text-align:center;text-anchor:middle;fill:#cec9b5;fill-opacity:1"
           d="m 357.65707,212.15195 c -7.60527,-3.69863 2.41728,-19.1398 0.24339,-5.28518 -0.48451,1.72255 -0.17383,3.52477 -0.24339,5.28518 z"
           id="path7716"
           inkscape:connector-curvature="0" />
        <path
           style="font-size:22.5px;text-align:center;text-anchor:middle;fill:#cec9b5;fill-opacity:1"
           d="m 370.53305,208.61435 c 1.70046,6.48743 -11.70034,0.52341 -3.16049,0.99419 -10.86673,0.64971 2.70135,-15.56413 -2.76643,-5.8373 1.92248,1.66882 5.11186,2.06432 5.92692,4.84311 z"
           id="path7718"
           inkscape:connector-curvature="0" />
        <path
           style="font-size:22.5px;text-align:center;text-anchor:middle;fill:#cec9b5;fill-opacity:1"
           d="m 383.9144,206.02158 c -3.00822,16.02553 -18.92886,-12.37436 -2.94681,-5.79 1.95597,1.1729 3.22029,3.49643 2.94681,5.79 z m -2.13135,0 c -3.71752,-12.47469 -7.02592,13.03242 -0.31348,0.50648 l 0.31348,-0.50648 z"
           id="path7720"
           inkscape:connector-curvature="0" />
        <path
           style="font-size:22.5px;text-align:center;text-anchor:middle;fill:#cec9b5;fill-opacity:1"
           d="m 189.47836,236.73935 c 1.70046,6.48743 -11.70034,0.52341 -3.16049,0.99419 -10.86672,0.64973 2.70132,-15.56413 -2.76642,-5.8373 1.92248,1.66881 5.11186,2.06431 5.92691,4.84311 z"
           id="path7722"
           inkscape:connector-curvature="0" />
        <path
           style="font-size:22.5px;text-align:center;text-anchor:middle;fill:#cec9b5;fill-opacity:1"
           d="m 198.7728,240.16708 c -11.71052,4.69966 -2.75192,-21.73723 -4.17338,-4.93569 0.76266,2.0679 2.31076,3.78888 4.17338,4.93569 z"
           id="path7724"
           inkscape:connector-curvature="0" />
        <path
           style="font-size:22.5px;text-align:center;text-anchor:middle;fill:#cec9b5;fill-opacity:1"
           d="m 211.45102,240.27695 c -6.54425,7.46198 -13.10976,-14.49043 -5.07575,-3.83 7.81483,-9.96539 4.63124,-3.80295 5.07575,3.83 z"
           id="path7726"
           inkscape:connector-curvature="0" />
        <path
           style="font-size:22.5px;text-align:center;text-anchor:middle;fill:#cec9b5;fill-opacity:1"
           d="m 225.46957,240.27695 c -14.70376,7.59133 -7.1739,-24.04847 0.11424,-11.05685 0.0797,3.68686 -0.3334,7.37095 -0.11424,11.05685 z m -2.06543,-3.02124 c 2.70935,-14.17781 -11.17489,5.78834 0,0 z"
           id="path7728"
           inkscape:connector-curvature="0" />
        <path
           style="font-size:22.5px;text-align:center;text-anchor:middle;fill:#cec9b5;fill-opacity:1"
           d="m 231.75375,225.95077 c -6.45954,2.23149 1.59705,-6.17071 0,0 z m -0.13183,14.32618 c -7.38447,-7.31988 4.81423,-12.42135 0,0 z"
           id="path7730"
           inkscape:connector-curvature="0" />
        <path
           style="font-size:22.5px;text-align:center;text-anchor:middle;fill:#cec9b5;fill-opacity:1"
           d="m 246.00302,234.35532 c -7.68984,-4.48994 -1.7503,13.23011 -9.72944,3.9651 -3.41886,-8.13583 9.91245,-16.93979 9.72944,-3.9651 z m -2.0105,-1.58204 c -3.11682,-9.85222 -9.80668,5.37571 0,0 z"
           id="path7732"
           inkscape:connector-curvature="0" />
        <path
           style="font-size:22.5px;text-align:center;text-anchor:middle;fill:#cec9b5;fill-opacity:1"
           d="m 259.08774,240.27695 c -14.70376,7.59134 -7.17391,-24.04847 0.11424,-11.05685 0.0797,3.68686 -0.3334,7.37095 -0.11424,11.05685 z m -2.06543,-3.02124 c 2.70935,-14.17781 -11.17489,5.78834 0,0 z"
           id="path7734"
           inkscape:connector-curvature="0" />
        <path
           style="font-size:22.5px;text-align:center;text-anchor:middle;fill:#cec9b5;fill-opacity:1"
           d="m 280.59897,240.27695 c -13.56855,5.00259 -4.1561,-21.85167 1.24987,-6.40462 1.24345,2.38739 0.71176,4.68536 -1.24987,6.40462 z m -2.05444,-3.02124 c -2.70589,-8.73495 -5.94866,7.59441 0,0 z"
           id="path7736"
           inkscape:connector-curvature="0" />
        <path
           style="font-size:22.5px;text-align:center;text-anchor:middle;fill:#cec9b5;fill-opacity:1"
           d="m 294.55161,240.27695 c -7.60527,-3.69863 2.41728,-19.1398 0.24339,-5.28518 -0.48451,1.72255 -0.17383,3.52477 -0.24339,5.28518 z"
           id="path7738"
           inkscape:connector-curvature="0" />
        <path
           style="font-size:22.5px;text-align:center;text-anchor:middle;fill:#cec9b5;fill-opacity:1"
           d="m 309.11948,234.14658 c -3.00821,16.02552 -18.92886,-12.37436 -2.94682,-5.79 1.95597,1.1729 3.22031,3.49642 2.94682,5.79 z m -2.13135,0 c -3.71749,-12.47469 -7.02593,13.0324 -0.31348,0.50648 l 0.31348,-0.50648 z"
           id="path7740"
           inkscape:connector-curvature="0" />
        <path
           style="font-size:22.5px;text-align:center;text-anchor:middle;fill:#cec9b5;fill-opacity:1"
           d="m 318.69955,240.16708 c -11.71051,4.69965 -2.75193,-21.73722 -4.17337,-4.93569 0.76266,2.0679 2.31076,3.78887 4.17337,4.93569 z"
           id="path7742"
           inkscape:connector-curvature="0" />
        <path
           style="font-size:22.5px;text-align:center;text-anchor:middle;fill:#cec9b5;fill-opacity:1"
           d="m 337.88168,236.73935 c 1.70046,6.48743 -11.70034,0.52341 -3.16049,0.99419 -10.86672,0.64973 2.70132,-15.56413 -2.76642,-5.8373 1.92248,1.66881 5.11186,2.06431 5.92691,4.84311 z"
           id="path7744"
           inkscape:connector-curvature="0" />
        <path
           style="font-size:22.5px;text-align:center;text-anchor:middle;fill:#cec9b5;fill-opacity:1"
           d="m 351.26303,234.14658 c -3.00821,16.02551 -18.92884,-12.37435 -2.94681,-5.79 1.95598,1.17289 3.2203,3.49643 2.94681,5.79 z m -2.13135,0 c -3.71751,-12.47469 -7.02592,13.03242 -0.31348,0.50648 l 0.31348,-0.50648 z"
           id="path7746"
           inkscape:connector-curvature="0" />
        <path
           style="font-size:22.5px;text-align:center;text-anchor:middle;fill:#cec9b5;fill-opacity:1"
           d="m 198.26743,268.29208 c -11.70184,4.7203 -2.76703,-21.73731 -4.17321,-4.94959 0.75892,2.07288 2.30311,3.80547 4.17321,4.94959 z"
           id="path7748"
           inkscape:connector-curvature="0" />
        <path
           style="font-size:22.5px;text-align:center;text-anchor:middle;fill:#cec9b5;fill-opacity:1"
           d="m 211.03354,268.40195 c 2.57362,-11.38224 -11.71531,-4.78205 -10.74481,-5.87231 -2.29089,-15.74156 16.58128,-3.13888 10.74481,5.87231 z"
           id="path7750"
           inkscape:connector-curvature="0" />
        <path
           style="font-size:22.5px;text-align:center;text-anchor:middle;fill:#cec9b5;fill-opacity:1"
           d="m 225.28281,262.48032 c -7.68985,-4.48996 -1.75029,13.23011 -9.72944,3.96511 -3.41886,-8.13583 9.91245,-16.9398 9.72944,-3.96511 z m -2.0105,-1.58204 c -3.11683,-9.85222 -9.80668,5.37571 0,0 z"
           id="path7752"
           inkscape:connector-curvature="0" />
        <path
           style="font-size:22.5px;text-align:center;text-anchor:middle;fill:#cec9b5;fill-opacity:1"
           d="m 239.0267,256.13022 c -2.38769,5.59936 -4.77539,11.19873 -7.16308,16.79809 -1.07163,-5.75925 -4.47637,-17.02825 3.42257,-10.8521 0.94097,-1.94691 -0.0279,-7.10269 3.74051,-5.94599 z"
           id="path7754"
           inkscape:connector-curvature="0" />
        <path
           style="font-size:22.5px;text-align:center;text-anchor:middle;fill:#cec9b5;fill-opacity:1"
           d="m 259.59311,267.00668 c -5.84696,12.79716 -17.89492,-16.64005 -1.9423,-9.77994 3.20104,2.1299 2.90364,6.54514 1.9423,9.77994 z m -2.06543,-1.97754 c 4.36612,-11.38006 -14.61939,3.58374 -1.48649,0.3612 l 1.48649,-0.3612 z"
           id="path7756"
           inkscape:connector-curvature="0" />
        <path
           style="font-size:22.5px;text-align:center;text-anchor:middle;fill:#cec9b5;fill-opacity:1"
           d="m 274.11703,262.27158 c -3.00822,16.02552 -18.92884,-12.37437 -2.9468,-5.79 1.95597,1.1729 3.22029,3.49643 2.9468,5.79 z m -2.13134,0 c -3.7175,-12.47468 -7.02593,13.03239 -0.31347,0.50647 l 0.31347,-0.50647 z"
           id="path7758"
           inkscape:connector-curvature="0" />
        <path
           style="font-size:22.5px;text-align:center;text-anchor:middle;fill:#cec9b5;fill-opacity:1"
           d="m 283.69711,268.29208 c -11.70182,4.72028 -2.76704,-21.7373 -4.1732,-4.94959 0.75893,2.07287 2.30312,3.80545 4.1732,4.94959 z"
           id="path7760"
           inkscape:connector-curvature="0" />
        <path
           style="font-size:22.5px;text-align:center;text-anchor:middle;fill:#cec9b5;fill-opacity:1"
           d="m 300.48422,268.29208 c -11.70182,4.72028 -2.76704,-21.7373 -4.1732,-4.94959 0.75893,2.07287 2.30312,3.80545 4.1732,4.94959 z"
           id="path7762"
           inkscape:connector-curvature="0" />
        <path
           style="font-size:22.5px;text-align:center;text-anchor:middle;fill:#cec9b5;fill-opacity:1"
           d="m 313.25034,268.40195 c 2.57363,-11.38226 -11.7153,-4.78205 -10.74482,-5.8723 -2.2909,-15.74157 16.58126,-3.1389 10.74482,5.8723 z"
           id="path7764"
           inkscape:connector-curvature="0" />
        <path
           style="font-size:22.5px;text-align:center;text-anchor:middle;fill:#cec9b5;fill-opacity:1"
           d="m 319.44662,254.07577 c -6.45954,2.23149 1.59705,-6.17071 0,0 z m -0.13183,14.32618 c -7.38434,-7.31983 4.81396,-12.42135 0,0 z"
           id="path7766"
           inkscape:connector-curvature="0" />
        <path
           style="font-size:22.5px;text-align:center;text-anchor:middle;fill:#cec9b5;fill-opacity:1"
           d="m 332.19077,264.86435 c -8.03648,10.75191 -8.98559,-14.2215 -3.553,-6.92345 -8.911,4.42338 4.10799,1.6152 3.553,6.92345 z"
           id="path7768"
           inkscape:connector-curvature="0" />
        <path
           style="font-size:22.5px;text-align:center;text-anchor:middle;fill:#cec9b5;fill-opacity:1"
           d="m 338.48593,268.40195 c -7.68373,1.07847 3.03023,-6.67454 0,0 z"
           id="path7770"
           inkscape:connector-curvature="0" />
      </g>
      <g
         transform="matrix(1,0,-0.09952026,1,0,0)"
         style="font-style:normal;font-weight:normal;font-size:40px;line-height:125%;font-family:sans-serif;text-align:center;letter-spacing:0px;word-spacing:0px;text-anchor:middle;opacity:0.75400002;fill:#3c3c3c;fill-opacity:1;stroke:none;stroke-width:1px;stroke-linecap:butt;stroke-linejoin:miter;stroke-opacity:1"
         id="text7188">
        <path
           style="font-style:normal;font-variant:normal;font-weight:bold;font-stretch:normal;font-family:sans-serif;-inkscape-font-specification:'sans-serif Bold';fill:#3c3c3c;fill-opacity:1"
           d="m 152.55087,113.47047 c 0.68931,16.54264 -30.10136,13.67397 -25.8789,-2.65799 0,-5.2989 0,-10.5978 0,-15.896693 15.92296,-3.136962 -0.0146,27.848733 15.67417,22.500353 7.05357,-3.97281 -3.26265,-26.265129 9.82538,-20.453453 1.199,5.446353 -0.0982,11.012783 0.37935,16.507783 z"
           id="path7203"
           inkscape:connector-curvature="0" />
        <path
           style="font-style:normal;font-variant:normal;font-weight:bold;font-stretch:normal;font-family:sans-serif;-inkscape-font-specification:'sans-serif Bold';fill:#3c3c3c;fill-opacity:1"
           d="m 185.94931,123.99782 c -11.14842,5.9692 -14.27126,-20.75758 -19.57031,-15.27394 0,5.09131 0,10.18263 0,15.27394 -12.91414,-0.26742 -4.76396,-18.87457 -6.74411,-27.020913 8.36509,-11.529425 14.83395,13.841963 19.59426,10.702993 -2.74337,-5.39385 1.60822,-19.538759 6.79413,-9.271332 -0.0709,8.529532 -0.0911,17.059512 -0.074,25.589252 z"
           id="path7205"
           inkscape:connector-curvature="0" />
        <path
           style="font-style:normal;font-variant:normal;font-weight:bold;font-stretch:normal;font-family:sans-serif;-inkscape-font-specification:'sans-serif Bold';fill:#3c3c3c;fill-opacity:1"
           d="m 209.1329,123.99782 c -5.67708,0 -11.35417,0 -17.03125,0 6.51032,-8.02908 6.11956,-21.89703 1.08655,-27.57004 7.4957,-6.424761 21.77085,1.186266 11.17906,8.99906 0,4.47157 0,8.94315 0,13.41473 3.37796,-1.95497 6.25549,2.06754 4.76564,5.15625 z"
           id="path7207"
           inkscape:connector-curvature="0" />
        <path
           style="font-style:normal;font-variant:normal;font-weight:bold;font-stretch:normal;font-family:sans-serif;-inkscape-font-specification:'sans-serif Bold';fill:#3c3c3c;fill-opacity:1"
           d="m 241.65244,94.915787 c -3.53516,9.694013 -7.07031,19.388023 -10.60547,29.082033 -11.21452,3.11352 -11.97532,-11.79983 -15.27778,-18.86434 -0.33156,-3.86285 -7.43159,-11.802966 0.34322,-11.057582 8.02113,-0.102299 7.85904,26.447272 13.23,14.304912 1.54475,-4.48834 3.08949,-8.976681 4.63424,-13.465023 2.5586,0 5.11719,0 7.67579,0 z"
           id="path7209"
           inkscape:connector-curvature="0" />
        <path
           style="font-style:normal;font-variant:normal;font-weight:bold;font-stretch:normal;font-family:sans-serif;-inkscape-font-specification:'sans-serif Bold';fill:#3c3c3c;fill-opacity:1"
           d="m 266.86728,123.99782 c -7.01172,0 -14.02344,0 -21.03516,0 0,-9.69401 0,-19.38802 0,-29.082033 7.01172,0 14.02344,0 21.03516,0 4.3379,8.747873 -22.2561,5.198713 -9.20004,10.216783 13.24688,-0.61352 5.3484,8.72048 -3.12559,6.66321 -7.65381,15.00858 16.7951,-1.13891 12.32563,12.20204 z"
           id="path7211"
           inkscape:connector-curvature="0" />
        <path
           style="font-style:normal;font-variant:normal;font-weight:bold;font-stretch:normal;font-family:sans-serif;-inkscape-font-specification:'sans-serif Bold';fill:#3c3c3c;fill-opacity:1"
           d="m 289.48447,103.82204 c -3.69108,-11.992801 -15.43645,6.55797 -3.82562,4.01241 1.57051,-1.02709 2.69594,-2.55264 3.82562,-4.01241 z m 11.69922,20.17578 c -8.58674,7.16814 -20.23733,-20.70774 -20.57128,-3.0533 -12.11109,7.927 -6.00203,-15.08136 -7.67981,-21.49697 2.94947,-10.730916 29.27329,-4.863698 22.03789,6.97168 -1.41687,6.45492 0.47365,13.79021 6.2132,17.57859 z"
           id="path7213"
           inkscape:connector-curvature="0" />
        <path
           style="font-style:normal;font-variant:normal;font-weight:bold;font-stretch:normal;font-family:sans-serif;-inkscape-font-specification:'sans-serif Bold';fill:#3c3c3c;fill-opacity:1"
           d="m 327.70712,114.85719 c 1.92438,14.18342 -29.13994,11.20983 -21.87507,2.56489 5.53237,4.04668 19.1568,-2.01748 6.28896,-4.22534 -16.64268,-4.60618 -3.10175,-25.933281 10.11167,-18.658989 9.31534,6.250759 -1.27442,7.998749 -6.77137,5.567149 -11.60432,8.4271 17.38292,4.78778 12.24581,14.75229 z"
           id="path7215"
           inkscape:connector-curvature="0" />
        <path
           style="font-style:normal;font-variant:normal;font-weight:bold;font-stretch:normal;font-family:sans-serif;-inkscape-font-specification:'sans-serif Bold';fill:#3c3c3c;fill-opacity:1"
           d="m 348.5079,123.99782 c -5.67708,0 -11.35417,0 -17.03125,0 6.51032,-8.02908 6.11956,-21.89703 1.08655,-27.57004 7.4957,-6.424761 21.77085,1.186266 11.17906,8.99906 0,4.47157 0,8.94315 0,13.41473 3.37796,-1.95497 6.25549,2.06754 4.76564,5.15625 z"
           id="path7217"
           inkscape:connector-curvature="0" />
        <path
           style="font-style:normal;font-variant:normal;font-weight:bold;font-stretch:normal;font-family:sans-serif;-inkscape-font-specification:'sans-serif Bold';fill:#3c3c3c;fill-opacity:1"
           d="m 377.41415,100.54079 c -13.877,-3.38211 -7.36542,15.64165 -9.55841,22.7943 -16.03893,2.04254 1.06843,-25.458968 -14.66564,-24.244774 1.18192,-8.986756 18.06563,-2.782174 24.23222,-3.439492 0.19403,1.634576 -0.22577,3.258073 -0.008,4.889966 z"
           id="path7219"
           inkscape:connector-curvature="0" />
        <path
           style="font-style:normal;font-variant:normal;font-weight:bold;font-stretch:normal;font-family:sans-serif;-inkscape-font-specification:'sans-serif Bold';fill:#3c3c3c;fill-opacity:1"
           d="m 407.51181,94.915787 c -8.26078,7.048473 -8.20918,23.852503 -15.13286,28.398623 -6.71926,-6.95501 -3.89128,-19.70193 -11.78397,-25.582125 3.65304,-11.736813 14.60202,16.569835 16.81507,0.686433 1.86045,-3.864967 6.30075,-4.908428 10.10176,-3.502931 z"
           id="path7221"
           inkscape:connector-curvature="0" />
        <path
           style="font-size:22.5px;text-align:center;text-anchor:middle;fill:#3c3c3c;fill-opacity:1"
           d="m 196.58652,141.4769 c -9.23023,-4.64901 -5.28965,21.52611 -8.0376,6.59593 3.44931,-5.81415 -10.74628,-9.4321 1.73612,-8.88059 2.07717,0.10709 5.7873,-0.46351 6.30148,2.28466 z"
           id="path7223"
           inkscape:connector-curvature="0" />
        <path
           style="font-size:22.5px;text-align:center;text-anchor:middle;fill:#3c3c3c;fill-opacity:1"
           d="m 208.90219,155.90195 c -1.12253,-6.57518 -7.31974,-15.71408 -8.21932,-3.97195 -3.41931,7.8641 -3.29397,-20.09461 1.85017,-7.0451 7.17677,-5.86372 6.73291,7.20807 6.36915,11.01705 z"
           id="path7225"
           inkscape:connector-curvature="0" />
        <path
           style="font-size:22.5px;text-align:center;text-anchor:middle;fill:#3c3c3c;fill-opacity:1"
           d="m 215.09848,141.57577 c -6.55969,1.88136 1.10756,-6.82554 0,0 z m -0.13184,14.32618 c -6.86041,-3.11219 2.17062,-16.96781 0.0181,-4.67456 l -0.0235,2.33706 0.005,2.3375 z"
           id="path7227"
           inkscape:connector-curvature="0" />
        <path
           style="font-size:22.5px;text-align:center;text-anchor:middle;fill:#3c3c3c;fill-opacity:1"
           d="m 227.84262,152.36435 c -0.43774,7.43954 -13.73402,-0.0405 -3.16049,0.99419 -7.85298,-2.84784 -5.95138,-15.15674 1.84734,-8.34988 -10.53553,2.82801 -1.66966,1.7886 1.31315,7.35569 z"
           id="path7229"
           inkscape:connector-curvature="0" />
        <path
           style="font-size:22.5px;text-align:center;text-anchor:middle;fill:#3c3c3c;fill-opacity:1"
           d="m 240.89438,141.57577 c -6.55969,1.88136 1.10756,-6.82554 0,0 z m -0.13184,14.32618 c -6.86041,-3.11219 2.17062,-16.96781 0.0181,-4.67456 l -0.0235,2.33706 0.005,2.3375 z"
           id="path7231"
           inkscape:connector-curvature="0" />
        <path
           style="font-size:22.5px;text-align:center;text-anchor:middle;fill:#3c3c3c;fill-opacity:1"
           d="m 253.63852,152.36435 c -0.43774,7.43955 -13.73404,-0.0405 -3.1605,0.99419 -7.85297,-2.84785 -5.95137,-15.15675 1.84735,-8.34987 -10.53553,2.82801 -1.66965,1.78858 1.31315,7.35568 z"
           id="path7233"
           inkscape:connector-curvature="0" />
        <path
           style="font-size:22.5px;text-align:center;text-anchor:middle;fill:#3c3c3c;fill-opacity:1"
           d="m 274.00717,155.90195 c -7.85139,4.21162 -12.36621,-7.98662 -3.53451,-9.75981 -11.13055,-2.92173 9.31438,-4.58379 3.53451,9.75981 z m -2.05444,-3.02124 c -0.12239,-9.63156 -10.70902,7.15384 0,0 z"
           id="path7235"
           inkscape:connector-curvature="0" />
        <path
           style="font-size:22.5px;text-align:center;text-anchor:middle;fill:#3c3c3c;fill-opacity:1"
           d="m 296.67197,149.61777 c -1.57714,8.59464 -16.81317,11.81965 -11.16491,-0.4359 0.41712,-7.76178 11.26093,-7.09989 11.16491,0.4359 z m -2.13135,0.0549 c -2.75616,-12.4529 -10.46562,11.40442 -0.53831,2.58368 l 0.43697,-1.24948 0.10134,-1.3342 z"
           id="path7237"
           inkscape:connector-curvature="0" />
        <path
           style="font-size:22.5px;text-align:center;text-anchor:middle;fill:#3c3c3c;fill-opacity:1"
           d="m 309.42709,155.90195 c -7.85139,4.21162 -12.36621,-7.98662 -3.53451,-9.75981 -11.13055,-2.92173 9.31438,-4.58379 3.53451,9.75981 z m -2.05444,-3.02124 c -0.12239,-9.63156 -10.70899,7.15382 0,0 z"
           id="path7239"
           inkscape:connector-curvature="0" />
        <path
           style="font-size:22.5px;text-align:center;text-anchor:middle;fill:#3c3c3c;fill-opacity:1"
           d="m 324.18173,149.61777 c -1.57714,8.59465 -16.81317,11.81964 -11.1649,-0.43591 0.41712,-7.76177 11.26094,-7.09989 11.1649,0.43591 z m -2.13135,0.0549 c -2.75616,-12.4529 -10.46562,11.40443 -0.5383,2.58367 l 0.43697,-1.24948 0.10133,-1.33419 z"
           id="path7241"
           inkscape:connector-curvature="0" />
        <path
           style="font-size:22.5px;text-align:center;text-anchor:middle;fill:#3c3c3c;fill-opacity:1"
           d="m 337.67294,149.98032 c -6.32437,-4.07133 -9.1592,5.56722 -1.39081,4.82542 -14.93216,8.88768 -7.47546,-22.67535 1.36467,-7.49854 0.009,0.89104 0.0174,1.78215 0.0261,2.67312 z m -2.01049,-1.58204 c -4.23516,-8.93598 -9.34838,4.20682 0,0 z"
           id="path7243"
           inkscape:connector-curvature="0" />
        <path
           style="font-size:22.5px;text-align:center;text-anchor:middle;fill:#3c3c3c;fill-opacity:1"
           d="m 348.46152,145.88241 c -7.36587,-3.11714 -6.2746,17.40254 -8.23953,2.11351 -0.27477,-3.89664 7.31866,-6.66336 8.23953,-2.11351 z"
           id="path7245"
           inkscape:connector-curvature="0" />
        <path
           style="font-size:22.5px;text-align:center;text-anchor:middle;fill:#3c3c3c;fill-opacity:1"
           d="m 157.50815,183.91708 c -13.36117,4.12204 -2.43493,-23.78728 -3.95367,-9.85403 -2.01043,3.54774 0.83914,8.03707 3.95367,9.85403 z"
           id="path7247"
           inkscape:connector-curvature="0" />
        <path
           style="font-size:22.5px;text-align:center;text-anchor:middle;fill:#3c3c3c;fill-opacity:1"
           d="m 170.27426,184.02695 c -1.12253,-6.57518 -7.31974,-15.71408 -8.21932,-3.97195 -3.41931,7.8641 -3.29397,-20.09461 1.85017,-7.0451 7.17677,-5.86372 6.73291,7.20807 6.36915,11.01705 z"
           id="path7249"
           inkscape:connector-curvature="0" />
        <path
           style="font-size:22.5px;text-align:center;text-anchor:middle;fill:#3c3c3c;fill-opacity:1"
           d="m 183.78745,184.02695 c -7.85138,4.21162 -12.36624,-7.98662 -3.53452,-9.75981 -11.13054,-2.92173 9.31436,-4.5838 3.53452,9.75981 z m -2.05445,-3.02124 c -0.12239,-9.63156 -10.70899,7.15382 0,0 z"
           id="path7251"
           inkscape:connector-curvature="0" />
        <path
           style="font-size:22.5px;text-align:center;text-anchor:middle;fill:#3c3c3c;fill-opacity:1"
           d="m 194.11459,183.91708 c -13.36116,4.12204 -2.43493,-23.78728 -3.95367,-9.85403 -2.01042,3.54774 0.83915,8.03705 3.95367,9.85403 z"
           id="path7253"
           inkscape:connector-curvature="0" />
        <path
           style="font-size:22.5px;text-align:center;text-anchor:middle;fill:#3c3c3c;fill-opacity:1"
           d="m 213.29672,180.48935 c -0.43774,7.43954 -13.73402,-0.0405 -3.16049,0.99419 -7.85298,-2.84784 -5.95137,-15.15675 1.84734,-8.34987 -10.53553,2.828 -1.66966,1.78859 1.31315,7.35568 z"
           id="path7255"
           inkscape:connector-curvature="0" />
        <path
           style="font-size:22.5px;text-align:center;text-anchor:middle;fill:#3c3c3c;fill-opacity:1"
           d="m 226.48032,184.02695 c -1.1225,-6.57519 -7.31976,-15.71407 -8.21933,-3.97194 -3.41931,7.86407 -3.29396,-20.09462 1.85018,-7.04511 7.17675,-5.86372 6.73291,7.20808 6.36915,11.01705 z"
           id="path7257"
           inkscape:connector-curvature="0" />
        <path
           style="font-size:22.5px;text-align:center;text-anchor:middle;fill:#3c3c3c;fill-opacity:1"
           d="m 240.91635,177.89658 c -1.19982,15.97143 -20.96747,-7.04141 -5.09155,-6.52662 3.08316,0.34733 5.45585,3.47317 5.09155,6.52662 z m -2.13135,0 c -4.67343,-15.2822 -9.4357,15.98188 0,0 z"
           id="path7259"
           inkscape:connector-curvature="0" />
        <path
           style="font-size:22.5px;text-align:center;text-anchor:middle;fill:#3c3c3c;fill-opacity:1"
           d="m 259.56015,171.75522 c -1.06567,4.09058 -2.13135,8.18115 -3.19702,12.27173 -4.38366,-6.79284 -5.81867,-8.33604 -9.26725,-1.24131 -4.99959,-3.17286 -2.0296,-16.07206 -0.0498,-4.03303 3.40435,-3.93804 7.08603,-9.77243 7.44258,-0.1293 3.10827,6.13988 0.2714,-9.12875 5.07153,-6.86809 z"
           id="path7261"
           inkscape:connector-curvature="0" />
        <path
           style="font-size:22.5px;text-align:center;text-anchor:middle;fill:#3c3c3c;fill-opacity:1"
           d="m 271.30453,180.48935 c -0.43774,7.43955 -13.73403,-0.0405 -3.16049,0.99419 -7.89836,-2.9438 -5.95683,-15.16011 2.05227,-8.3552 -5.6547,0.8584 -8.4239,2.75234 -0.66838,4.63826 1.10247,0.32387 2.14695,1.52112 1.7766,2.72275 z"
           id="path7263"
           inkscape:connector-curvature="0" />
        <path
           style="font-size:22.5px;text-align:center;text-anchor:middle;fill:#3c3c3c;fill-opacity:1"
           d="m 290.90414,180.48935 c -0.43774,7.43955 -13.73403,-0.0405 -3.16049,0.99419 -7.89836,-2.9438 -5.95682,-15.16012 2.05227,-8.3552 -5.65469,0.8584 -8.42389,2.75234 -0.66838,4.63826 1.10247,0.32387 2.14695,1.52112 1.7766,2.72275 z"
           id="path7265"
           inkscape:connector-curvature="0" />
        <path
           style="font-size:22.5px;text-align:center;text-anchor:middle;fill:#3c3c3c;fill-opacity:1"
           d="m 304.28549,177.89658 c -1.19802,15.96838 -20.96714,-7.034 -5.0951,-6.5288 3.08145,0.3509 5.46254,3.47238 5.0951,6.5288 z m -2.13135,0 c -4.67343,-15.2822 -9.43569,15.98188 0,0 z"
           id="path7267"
           inkscape:connector-curvature="0" />
        <path
           style="font-size:22.5px;text-align:center;text-anchor:middle;fill:#3c3c3c;fill-opacity:1"
           d="m 325.40121,184.02695 c -1.13105,-5.96595 -7.12152,-16.02461 -7.72756,-4.11811 -2.2026,7.67466 -3.9135,-14.33224 -7.6889,-2.18723 -3.38714,14.49613 -4.85413,-11.39154 5.91178,-6.55322 6.82764,-0.34399 13.35461,6.04735 9.50468,12.85856 z"
           id="path7269"
           inkscape:connector-curvature="0" />
        <path
           style="font-size:22.5px;text-align:center;text-anchor:middle;fill:#3c3c3c;fill-opacity:1"
           d="m 339.60654,178.10532 c -6.32438,-4.07134 -9.15921,5.56723 -1.39081,4.82542 -14.93217,8.88769 -7.47547,-22.67535 1.36467,-7.49854 0.009,0.89104 0.0174,1.78215 0.0261,2.67312 z m -2.0105,-1.58204 c -4.23516,-8.93598 -9.34838,4.20682 0,0 z"
           id="path7271"
           inkscape:connector-curvature="0" />
        <path
           style="font-size:22.5px;text-align:center;text-anchor:middle;fill:#3c3c3c;fill-opacity:1"
           d="m 353.19662,177.89658 c -1.19803,15.96839 -20.96715,-7.03402 -5.09509,-6.5288 3.08145,0.3509 5.46253,3.47239 5.09509,6.5288 z m -2.13134,0 c -4.67341,-15.28221 -9.43571,15.98186 0,0 z"
           id="path7273"
           inkscape:connector-curvature="0" />
        <path
           style="font-size:22.5px;text-align:center;text-anchor:middle;fill:#3c3c3c;fill-opacity:1"
           d="m 366.66586,184.02695 c -1.15825,-6.02337 -7.05924,-16.0709 -8.20147,-4.26585 -5.72607,5.58449 0.75552,-18.92232 7.54178,-4.4116 1.72237,2.49617 2.23634,5.97761 0.65969,8.67745 z"
           id="path7275"
           inkscape:connector-curvature="0" />
        <path
           style="font-size:22.5px;text-align:center;text-anchor:middle;fill:#3c3c3c;fill-opacity:1"
           d="m 380.91513,178.10532 c -6.32437,-4.07132 -9.1592,5.56724 -1.39081,4.82542 -14.93216,8.88768 -7.47547,-22.67535 1.36467,-7.49854 0.009,0.89104 0.0174,1.78215 0.0261,2.67312 z m -2.0105,-1.58204 c -4.23515,-8.93598 -9.34838,4.20682 0,0 z"
           id="path7277"
           inkscape:connector-curvature="0" />
        <path
           style="font-size:22.5px;text-align:center;text-anchor:middle;fill:#3c3c3c;fill-opacity:1"
           d="m 158.01352,210.75668 c 1.86449,7.61604 -13.23169,5.06478 -3.71493,1.65586 -6.38892,-2.54894 -11.91292,-8.55131 -2.81089,-12.35795 6.11841,-2.68323 8.03141,6.65996 6.52582,10.70209 z m -2.06543,-1.97754 c 5.00399,-10.93553 -14.61081,-1.1551 -2.69675,1.17802 0.98772,-0.0937 1.79106,-0.82057 2.69675,-1.17802 z"
           id="path7279"
           inkscape:connector-curvature="0" />
        <path
           style="font-size:22.5px;text-align:center;text-anchor:middle;fill:#3c3c3c;fill-opacity:1"
           d="m 169.73593,202.13241 c -7.36587,-3.11716 -6.27461,17.40255 -8.23954,2.11351 -0.27476,-3.89663 7.31867,-6.66336 8.23954,-2.11351 z"
           id="path7281"
           inkscape:connector-curvature="0" />
        <path
           style="font-size:22.5px;text-align:center;text-anchor:middle;fill:#3c3c3c;fill-opacity:1"
           d="m 181.23862,212.15195 c -7.85138,4.21162 -12.36623,-7.98661 -3.53452,-9.7598 -11.13054,-2.92174 9.31436,-4.5838 3.53452,9.7598 z m -2.05445,-3.02124 c -0.12239,-9.63155 -10.709,7.15382 0,0 z"
           id="path7283"
           inkscape:connector-curvature="0" />
        <path
           style="font-size:22.5px;text-align:center;text-anchor:middle;fill:#3c3c3c;fill-opacity:1"
           d="m 195.14731,212.15195 c -10.78618,5.89532 -14.10782,-15.87068 -2.0189,-13.27641 3.21335,-9.32102 1.67325,13.25566 2.0189,13.27641 z m -2.06543,-3.02124 c 2.47761,-14.30543 -14.02622,4.96115 0,0 l 0,0 z"
           id="path7285"
           inkscape:connector-curvature="0" />
        <path
           style="font-size:22.5px;text-align:center;text-anchor:middle;fill:#3c3c3c;fill-opacity:1"
           d="m 209.38559,212.15195 c -10.23205,7.32262 -12.45837,-20.54632 -7.23383,-3.83368 7.28479,3.07857 6.46133,-14.90694 7.45363,-2.13536 0.13264,1.98995 0.0692,3.99493 -0.2198,5.96904 z"
           id="path7287"
           inkscape:connector-curvature="0" />
        <path
           style="font-size:22.5px;text-align:center;text-anchor:middle;fill:#3c3c3c;fill-opacity:1"
           d="m 222.98666,212.15195 c -7.85139,4.21162 -12.36621,-7.98662 -3.53451,-9.75981 -11.13055,-2.92173 9.31438,-4.58379 3.53451,9.75981 z m -2.05444,-3.02124 c -0.12239,-9.63156 -10.70899,7.15382 0,0 z"
           id="path7289"
           inkscape:connector-curvature="0" />
        <path
           style="font-size:22.5px;text-align:center;text-anchor:middle;fill:#3c3c3c;fill-opacity:1"
           d="m 233.31381,212.04208 c -13.36116,4.12204 -2.43493,-23.78728 -3.95367,-9.85403 -2.01042,3.54774 0.83915,8.03705 3.95367,9.85403 z"
           id="path7291"
           inkscape:connector-curvature="0" />
        <path
           style="font-size:22.5px;text-align:center;text-anchor:middle;fill:#3c3c3c;fill-opacity:1"
           d="m 246.09091,206.23032 c -6.32437,-4.07133 -9.1592,5.56722 -1.39081,4.82542 -14.93216,8.88768 -7.47546,-22.67535 1.36467,-7.49854 0.009,0.89104 0.0174,1.78215 0.0261,2.67312 z m -2.0105,-1.58204 c -4.23515,-8.93598 -9.34838,4.20682 0,0 z"
           id="path7293"
           inkscape:connector-curvature="0" />
        <path
           style="font-size:22.5px;text-align:center;text-anchor:middle;fill:#3c3c3c;fill-opacity:1"
           d="m 259.17563,212.15195 c -10.78618,5.89531 -14.10782,-15.87068 -2.0189,-13.27641 3.21335,-9.32102 1.67325,13.25566 2.0189,13.27641 z m -2.06543,-3.02124 c 2.47761,-14.30543 -14.02622,4.96115 0,0 l 0,0 z"
           id="path7295"
           inkscape:connector-curvature="0" />
        <path
           style="font-size:22.5px;text-align:center;text-anchor:middle;fill:#3c3c3c;fill-opacity:1"
           d="m 266.61337,212.15195 c -7.44149,0.9586 2.30482,-7.34427 0,0 z"
           id="path7297"
           inkscape:connector-curvature="0" />
        <path
           style="font-size:22.5px;text-align:center;text-anchor:middle;fill:#3c3c3c;fill-opacity:1"
           d="m 291.15683,197.7269 c -9.23023,-4.64901 -5.28965,21.52611 -8.0376,6.59593 4.04434,-6.21333 -10.54645,-8.51041 0.0492,-8.97515 2.67231,-0.13642 6.48311,-0.40588 7.98835,2.37922 z"
           id="path7299"
           inkscape:connector-curvature="0" />
        <path
           style="font-size:22.5px;text-align:center;text-anchor:middle;fill:#3c3c3c;fill-opacity:1"
           d="m 303.4725,212.15195 c -1.1225,-6.57519 -7.31976,-15.71408 -8.21933,-3.97195 -3.41931,7.8641 -3.29398,-20.09461 1.85018,-7.0451 7.17677,-5.86372 6.73289,7.20808 6.36915,11.01705 z"
           id="path7301"
           inkscape:connector-curvature="0" />
        <path
           style="font-size:22.5px;text-align:center;text-anchor:middle;fill:#3c3c3c;fill-opacity:1"
           d="m 317.72177,206.23032 c -6.32437,-4.07133 -9.1592,5.56722 -1.39081,4.82542 -14.93216,8.88768 -7.47547,-22.67535 1.36467,-7.49854 0.009,0.89104 0.0174,1.78215 0.0261,2.67312 z m -2.0105,-1.58204 c -4.23515,-8.93598 -9.34838,4.20682 0,0 z"
           id="path7303"
           inkscape:connector-curvature="0" />
        <path
           style="font-size:22.5px;text-align:center;text-anchor:middle;fill:#3c3c3c;fill-opacity:1"
           d="m 331.46567,199.88022 c -2.3877,5.59936 -4.77539,11.19873 -7.16309,16.79809 0.224,-4.81936 -6.4182,-22.39044 -0.0796,-10.82279 6.01427,5.19008 1.86484,-7.83452 7.24272,-5.9753 z"
           id="path7305"
           inkscape:connector-curvature="0" />
        <path
           style="font-size:22.5px;text-align:center;text-anchor:middle;fill:#3c3c3c;fill-opacity:1"
           d="m 351.61459,212.15195 c -7.85139,4.21162 -12.36621,-7.98662 -3.53451,-9.75981 -11.13055,-2.92173 9.31438,-4.58379 3.53451,9.75981 z m -2.05444,-3.02124 c -0.12239,-9.63156 -10.70899,7.15382 0,0 z"
           id="path7307"
           inkscape:connector-curvature="0" />
        <path
           style="font-size:22.5px;text-align:center;text-anchor:middle;fill:#3c3c3c;fill-opacity:1"
           d="m 357.65707,212.15195 c -7.04236,-3.90697 1.5675,-24.14533 0.0249,-7.65652 -0.0281,2.55195 -0.0955,5.1045 -0.0249,7.65652 z"
           id="path7309"
           inkscape:connector-curvature="0" />
        <path
           style="font-size:22.5px;text-align:center;text-anchor:middle;fill:#3c3c3c;fill-opacity:1"
           d="m 370.53305,208.61435 c -0.43774,7.43955 -13.73403,-0.0405 -3.16049,0.99419 -7.85297,-2.84785 -5.95139,-15.15674 1.84734,-8.34987 -10.53553,2.82801 -1.66965,1.78858 1.31315,7.35568 z"
           id="path7311"
           inkscape:connector-curvature="0" />
        <path
           style="font-size:22.5px;text-align:center;text-anchor:middle;fill:#3c3c3c;fill-opacity:1"
           d="m 383.9144,206.02158 c -1.19804,15.96839 -20.96716,-7.03401 -5.0951,-6.5288 3.08145,0.3509 5.46253,3.47239 5.0951,6.5288 z m -2.13135,0 c -4.67344,-15.2822 -9.43569,15.98188 0,0 z"
           id="path7313"
           inkscape:connector-curvature="0" />
        <path
           style="font-size:22.5px;text-align:center;text-anchor:middle;fill:#3c3c3c;fill-opacity:1"
           d="m 189.47836,236.73935 c -0.43774,7.43955 -13.73403,-0.0405 -3.16049,0.99419 -7.85297,-2.84784 -5.95138,-15.15674 1.84733,-8.34987 -10.53551,2.82801 -1.66963,1.78859 1.31316,7.35568 z"
           id="path7315"
           inkscape:connector-curvature="0" />
        <path
           style="font-size:22.5px;text-align:center;text-anchor:middle;fill:#3c3c3c;fill-opacity:1"
           d="m 198.7728,240.16708 c -13.36117,4.12204 -2.43493,-23.78729 -3.95367,-9.85403 -2.01043,3.54774 0.83913,8.03707 3.95367,9.85403 z"
           id="path7317"
           inkscape:connector-curvature="0" />
        <path
           style="font-size:22.5px;text-align:center;text-anchor:middle;fill:#3c3c3c;fill-opacity:1"
           d="m 211.45102,240.27695 c -10.23205,7.32262 -12.45837,-20.54632 -7.23383,-3.83368 7.28479,3.07857 6.46133,-14.90694 7.45363,-2.13536 0.13264,1.98995 0.0692,3.99493 -0.2198,5.96904 z"
           id="path7319"
           inkscape:connector-curvature="0" />
        <path
           style="font-size:22.5px;text-align:center;text-anchor:middle;fill:#3c3c3c;fill-opacity:1"
           d="m 225.46957,240.27695 c -10.78618,5.89532 -14.10781,-15.87067 -2.0189,-13.27641 3.21335,-9.32102 1.67325,13.25566 2.0189,13.27641 z m -2.06543,-3.02124 c 2.47761,-14.30543 -14.02622,4.96115 0,0 l 0,0 z"
           id="path7321"
           inkscape:connector-curvature="0" />
        <path
           style="font-size:22.5px;text-align:center;text-anchor:middle;fill:#3c3c3c;fill-opacity:1"
           d="m 231.75375,225.95077 c -6.55969,1.88136 1.10756,-6.82554 0,0 z m -0.13183,14.32618 c -6.86043,-3.11221 2.17065,-16.96781 0.0182,-4.67456 l -0.0236,2.33706 0.005,2.3375 z"
           id="path7323"
           inkscape:connector-curvature="0" />
        <path
           style="font-size:22.5px;text-align:center;text-anchor:middle;fill:#3c3c3c;fill-opacity:1"
           d="m 246.00302,234.35532 c -6.32437,-4.07133 -9.1592,5.56722 -1.39081,4.82542 -14.93216,8.88768 -7.47547,-22.67535 1.36467,-7.49854 0.009,0.89104 0.0174,1.78215 0.0261,2.67312 z m -2.0105,-1.58204 c -4.23515,-8.93598 -9.34838,4.20682 0,0 z"
           id="path7325"
           inkscape:connector-curvature="0" />
        <path
           style="font-size:22.5px;text-align:center;text-anchor:middle;fill:#3c3c3c;fill-opacity:1"
           d="m 259.08774,240.27695 c -10.78618,5.89532 -14.10782,-15.87068 -2.0189,-13.27641 3.21335,-9.32102 1.67325,13.25566 2.0189,13.27641 z m -2.06543,-3.02124 c 2.47761,-14.30543 -14.02622,4.96115 0,0 l 0,0 z"
           id="path7327"
           inkscape:connector-curvature="0" />
        <path
           style="font-size:22.5px;text-align:center;text-anchor:middle;fill:#3c3c3c;fill-opacity:1"
           d="m 280.59897,240.27695 c -7.85139,4.21162 -12.36622,-7.98662 -3.53451,-9.75981 -11.11986,-2.95046 9.36745,-4.5508 3.53451,9.75981 z m -2.05444,-3.02124 c -0.12239,-9.63156 -10.70903,7.15382 0,0 z"
           id="path7329"
           inkscape:connector-curvature="0" />
        <path
           style="font-size:22.5px;text-align:center;text-anchor:middle;fill:#3c3c3c;fill-opacity:1"
           d="m 294.55161,240.27695 c -7.04236,-3.90697 1.5675,-24.14533 0.0249,-7.65652 -0.0281,2.55195 -0.0955,5.1045 -0.0249,7.65652 z"
           id="path7331"
           inkscape:connector-curvature="0" />
        <path
           style="font-size:22.5px;text-align:center;text-anchor:middle;fill:#3c3c3c;fill-opacity:1"
           d="m 309.11948,234.14658 c -1.19803,15.96838 -20.96716,-7.03401 -5.09511,-6.5288 3.08145,0.35091 5.46255,3.47238 5.09511,6.5288 z m -2.13135,0 c -4.67341,-15.2822 -9.43572,15.98185 0,0 z"
           id="path7333"
           inkscape:connector-curvature="0" />
        <path
           style="font-size:22.5px;text-align:center;text-anchor:middle;fill:#3c3c3c;fill-opacity:1"
           d="m 318.69955,240.16708 c -13.36116,4.12203 -2.43492,-23.78727 -3.95367,-9.85403 -2.01043,3.54774 0.83915,8.03706 3.95367,9.85403 z"
           id="path7335"
           inkscape:connector-curvature="0" />
        <path
           style="font-size:22.5px;text-align:center;text-anchor:middle;fill:#3c3c3c;fill-opacity:1"
           d="m 337.88168,236.73935 c -0.43774,7.43955 -13.73403,-0.0405 -3.16049,0.99419 -7.85297,-2.84784 -5.95138,-15.15674 1.84733,-8.34987 -10.53551,2.82801 -1.66963,1.78859 1.31316,7.35568 z"
           id="path7337"
           inkscape:connector-curvature="0" />
        <path
           style="font-size:22.5px;text-align:center;text-anchor:middle;fill:#3c3c3c;fill-opacity:1"
           d="m 351.26303,234.14658 c -1.19802,15.96838 -20.96714,-7.034 -5.0951,-6.5288 3.08145,0.3509 5.46254,3.47238 5.0951,6.5288 z m -2.13135,0 c -4.67343,-15.2822 -9.4357,15.98188 0,0 z"
           id="path7339"
           inkscape:connector-curvature="0" />
        <path
           style="font-size:22.5px;text-align:center;text-anchor:middle;fill:#3c3c3c;fill-opacity:1"
           d="m 198.26743,268.29208 c -13.35656,4.11966 -2.44027,-23.76115 -3.9571,-9.8742 -1.99707,3.54194 0.83477,8.06559 3.9571,9.8742 z"
           id="path7341"
           inkscape:connector-curvature="0" />
        <path
           style="font-size:22.5px;text-align:center;text-anchor:middle;fill:#3c3c3c;fill-opacity:1"
           d="m 211.03354,268.40195 c -1.12253,-6.57518 -7.31974,-15.71408 -8.21932,-3.97195 -3.41931,7.8641 -3.29397,-20.09461 1.85017,-7.0451 7.17677,-5.86372 6.73291,7.20807 6.36915,11.01705 z"
           id="path7343"
           inkscape:connector-curvature="0" />
        <path
           style="font-size:22.5px;text-align:center;text-anchor:middle;fill:#3c3c3c;fill-opacity:1"
           d="m 225.28281,262.48032 c -6.32438,-4.07134 -9.15921,5.56723 -1.39081,4.82542 -14.93217,8.88769 -7.47547,-22.67535 1.36467,-7.49854 0.009,0.89104 0.0174,1.78215 0.0261,2.67312 z m -2.0105,-1.58204 c -4.23516,-8.93598 -9.34838,4.20682 0,0 z"
           id="path7345"
           inkscape:connector-curvature="0" />
        <path
           style="font-size:22.5px;text-align:center;text-anchor:middle;fill:#3c3c3c;fill-opacity:1"
           d="m 239.0267,256.13022 c -2.38769,5.59936 -4.77539,11.19873 -7.16308,16.79809 0.22392,-4.82161 -6.41909,-22.38915 -0.0771,-10.82026 6.01918,5.1849 1.86029,-7.84466 7.24019,-5.97783 z"
           id="path7347"
           inkscape:connector-curvature="0" />
        <path
           style="font-size:22.5px;text-align:center;text-anchor:middle;fill:#3c3c3c;fill-opacity:1"
           d="m 259.59311,267.00668 c 1.86449,7.61604 -13.23169,5.06478 -3.71493,1.65586 -6.36642,-2.56129 -11.90375,-8.49609 -2.86292,-12.36647 6.04284,-2.70244 8.17041,6.70645 6.57785,10.71061 z m -2.06543,-1.97754 c 5.00399,-10.93553 -14.61081,-1.1551 -2.69675,1.17802 0.98096,-0.0909 1.79509,-0.82223 2.69675,-1.17802 z"
           id="path7349"
           inkscape:connector-curvature="0" />
        <path
           style="font-size:22.5px;text-align:center;text-anchor:middle;fill:#3c3c3c;fill-opacity:1"
           d="m 274.11703,262.27158 c -1.19803,15.96839 -20.96715,-7.03402 -5.09509,-6.5288 3.08145,0.3509 5.46253,3.47239 5.09509,6.5288 z m -2.13134,0 c -4.6734,-15.28219 -9.43573,15.98183 0,0 z"
           id="path7351"
           inkscape:connector-curvature="0" />
        <path
           style="font-size:22.5px;text-align:center;text-anchor:middle;fill:#3c3c3c;fill-opacity:1"
           d="m 283.69711,268.29208 c -13.35655,4.11967 -2.44027,-23.76114 -3.9571,-9.8742 -1.99706,3.54195 0.83479,8.06556 3.9571,9.8742 z"
           id="path7353"
           inkscape:connector-curvature="0" />
        <path
           style="font-size:22.5px;text-align:center;text-anchor:middle;fill:#3c3c3c;fill-opacity:1"
           d="m 300.48422,268.29208 c -13.35655,4.11967 -2.44027,-23.76114 -3.9571,-9.8742 -1.99706,3.54195 0.83479,8.06556 3.9571,9.8742 z"
           id="path7355"
           inkscape:connector-curvature="0" />
        <path
           style="font-size:22.5px;text-align:center;text-anchor:middle;fill:#3c3c3c;fill-opacity:1"
           d="m 313.25034,268.40195 c -1.1225,-6.5752 -7.31976,-15.71408 -8.21933,-3.97195 -3.4193,7.8641 -3.29398,-20.09459 1.85017,-7.0451 7.17677,-5.86371 6.7329,7.20807 6.36916,11.01705 z"
           id="path7357"
           inkscape:connector-curvature="0" />
        <path
           style="font-size:22.5px;text-align:center;text-anchor:middle;fill:#3c3c3c;fill-opacity:1"
           d="m 319.44662,254.07577 c -6.55969,1.88136 1.10756,-6.82554 0,0 z m -0.13183,14.32618 c -6.86041,-3.11219 2.17062,-16.96781 0.0181,-4.67456 l -0.0235,2.33705 0.005,2.33751 z"
           id="path7359"
           inkscape:connector-curvature="0" />
        <path
           style="font-size:22.5px;text-align:center;text-anchor:middle;fill:#3c3c3c;fill-opacity:1"
           d="m 332.19077,264.86435 c -0.43774,7.43955 -13.73404,-0.0405 -3.1605,0.99419 -7.85298,-2.84785 -5.95137,-15.15675 1.84735,-8.34987 -14.15323,4.29983 0.49227,0.81343 1.31315,7.35568 z"
           id="path7361"
           inkscape:connector-curvature="0" />
        <path
           style="font-size:22.5px;text-align:center;text-anchor:middle;fill:#3c3c3c;fill-opacity:1"
           d="m 338.48593,268.40195 c -7.44149,0.9586 2.30482,-7.34427 0,0 z"
           id="path7363"
           inkscape:connector-curvature="0" />
      </g>
      <path
         inkscape:connector-curvature="0"
         id="path8100"
         d="m 137.23404,327.54392 c 0.95871,-0.53898 -2.17693,2.78807 0.97058,1.77305 4.08819,-0.64394 3.39834,-6.3356 5.12121,-9.38145 1.41097,-3.01666 0.21368,-6.41685 0.95377,-9.59033 -0.24326,-5.03327 0.62429,-10.04542 0.40125,-15.07077 -0.1897,-3.80613 -2.61387,-9.07116 -6.61668,-6.24754 -1.6434,3.35736 -2.74365,7.18444 -3.54621,10.89986 -1.22013,7.73729 -0.9209,15.62472 -0.63115,23.41973 0.9276,3.87359 2.48792,7.69489 4.66485,11.03424 0.96123,2.52506 5.20262,1.93517 4.32634,-1.34902 1.7574,-4.10393 1.70189,-8.73357 2.18236,-13.11111 -0.0603,-2.77739 9.4e-4,-5.56273 -0.0249,-8.33411 -2.22401,-3.47882 -4.36118,2.27254 -6.02837,3.90071 -1.21073,3.04136 -3.79783,5.89339 -3.90071,9.23857 -0.31846,2.38091 5.08444,0.20893 5.12299,-2.40696 1.06061,-2.34276 6.94778,-5.15256 6.29909,-6.31728 1.66384,-0.24288 5.72415,-5.08961 8.08147,-5.12426 2.56375,-0.55724 1.36697,5.38946 0.5083,7.2642 -0.90496,4.99963 -2.35062,10.2441 -2.28135,15.07623 1.71544,1.94064 1.88253,-5.12537 2.0844,-6.95911 1.6141,-8.56268 1.46674,-17.33363 1.46169,-26.01992 -0.001,-2.24395 0.002,-4.50251 0,-6.73728 -1.12182,2.51595 -0.54009,6.69366 -0.76903,9.88789 0.48889,3.67578 0.97012,7.83333 3.60591,10.67948 2.888,2.83167 5.03111,6.88835 8.96703,8.14229 2.85324,2.01003 6.99473,1.85153 10.39368,1.15044 3.64622,-1.31747 5.87107,-5.23831 6.18986,-9.07706 0.51435,-2.61982 -1.49654,-7.67614 -4.27397,-6.95326 -2.71422,2.88757 -4.4637,7.0002 -3.90071,11.01162 0.15875,2.43976 -0.66787,5.1234 1.1215,7.17028 1.93569,2.91447 5.45849,6.47316 8.4662,6.61353 0.95071,-0.75872 0.59364,5.20603 1.07988,7.29591 -0.30805,4.36661 0.53364,8.83286 -0.51814,13.11908 -2.38518,4.84178 -7.27742,8.20554 -12.66101,8.73841 -3.72865,0.49016 -8.06799,1.01537 -10.94961,-1.95606 -3.73491,-2.59023 -6.55373,-6.85497 -7.16805,-11.38608 -0.41575,-5.24697 0.15077,-10.45112 4.2125,-14.24283 4.68361,-5.84229 10.02312,-11.26656 16.05575,-15.72464 5.63547,-4.05841 12.61094,-5.2763 19.15531,-7.09312 4.43807,-0.30562 8.82965,-0.5744 11.88172,3.1884 3.2088,0.35391 3.59245,5.70076 4.29588,6.41129 0.55964,-3.76724 1.36184,-6.66033 1.79148,-10.4901 1.02685,-4.78168 2.19809,-9.58281 2.6118,-14.46942 0.69645,-3.8383 -0.18391,-8.30787 -4.92966,-7.69367 -5.26162,0.0842 -8.12196,5.52014 -12.02469,8.37354 -6.30275,4.6678 -9.4873,12.08848 -12.72339,18.97523 -1.08345,3.42903 -3.18663,6.67406 -2.60527,10.39313 -0.68347,3.85281 4.32674,4.1511 7.11091,4.10593 1.80845,0.12454 3.74509,-0.0856 4.23661,-0.70922 -0.32573,-0.0485 5.31963,2.25748 6.59265,-0.32886 2.36649,-2.48001 2.9728,-5.2741 2.62721,-8.79775 -0.30091,-1.04991 0.68355,-4.49304 -0.70373,-3.64892 -1.2081,3.02906 -1.81603,6.07806 -1.77854,9.22943 1.66291,2.29544 4.2039,4.72885 5.1352,0.42506 0.92011,-2.50692 2.23628,-0.23539 3.61807,-0.42506 0.77228,-0.009 1.04925,0.0113 1.77305,0 0.69636,0.53819 0.75139,-2.09602 1.32956,-1.00981 0.62773,-2.43082 1.52865,-8.19071 3.91961,-3.41921 1.6338,1.75882 3.19948,3.35604 3.37035,4.43142 1.16993,1.43513 2.39188,2.78847 1.77614,1.06143 0.60212,-0.61363 0.59093,-2.58587 0,-3.19149"
         style="fill:none;fill-opacity:1;fill-rule:evenodd;stroke:#3c3c3c;stroke-width:1px;stroke-linecap:butt;stroke-linejoin:miter;stroke-opacity:1;filter:url(#filter8409)" />
    </g>
  </g>
</svg>
