<svg width="51" height="44" viewBox="0 0 51 44" fill="none" xmlns="http://www.w3.org/2000/svg">
<mask id="path-1-inside-1_105_31" fill="white">
<path fill-rule="evenodd" clip-rule="evenodd" d="M36.0555 3.58538L46.7001 22.3067L35.8093 40.8858L14.2739 40.7437L3.62923 22.0224L14.52 3.44325L36.0555 3.58538ZM50.1641 22.3295L37.5215 43.8972L12.522 43.7322L0.165202 21.9996L12.8078 0.431889L37.8073 0.596877L50.1641 22.3295ZM30.2453 30.528V29.5863V29.3328V28.7651V28.396V24.7243V20.992V20.9396V20.896C30.2453 20.8385 30.2259 20.7955 30.1872 20.767C30.1684 20.7533 30.1451 20.7429 30.1173 20.736C30.0947 20.7284 30.0733 20.7262 30.0533 20.7294C30.0169 20.7351 29.9849 20.7587 29.9573 20.8L29.9108 20.896L29.1913 22.38L29.1644 22.4355L28.6205 23.5572L28.2717 24.2767L27.812 25.2247L27.7959 25.2581L27.6819 25.493L27.4527 25.9659L26.8853 27.136C26.8213 27.3067 26.6827 27.456 26.4693 27.584C26.3933 27.6296 26.3187 27.6725 26.2453 27.7127C26.1129 27.7853 25.9849 27.8491 25.8613 27.904L25.6053 28C25.3472 28 25.1232 27.9561 24.9333 27.8684C24.6367 27.7313 24.4234 27.4872 24.2933 27.136L23.7173 25.948L23.4968 25.4931L23.3725 25.2369L23.3667 25.2247L22.907 24.2767L22.5542 23.5491L22.0143 22.4355L21.9988 22.4036L21.2679 20.896L21.2213 20.8C21.2028 20.7444 21.1602 20.721 21.0933 20.7298C21.0832 20.7311 21.0726 20.7332 21.0613 20.736C21.0279 20.7444 21.001 20.7576 20.9807 20.7758C20.9491 20.804 20.9333 20.8441 20.9333 20.896V20.9396V24.7237V28.3804V28.7651V29.3629V29.6672V30.528C20.9333 30.9333 20.784 31.2853 20.4853 31.584C20.208 31.8613 19.8667 32 19.4613 32H18.5653C18.16 32 17.808 31.8613 17.5093 31.584C17.232 31.2853 17.0933 30.9333 17.0933 30.528V29.6489V20.896V19.7461V11.84C17.0933 11.4133 17.232 11.0613 17.5093 10.784C17.808 10.5067 18.16 10.368 18.5653 10.368H19.4933C20.0907 10.368 20.528 10.6453 20.8053 11.2C20.912 11.4347 21.1253 11.8933 21.4453 12.576C21.7867 13.2373 22.1813 14.0267 22.6293 14.944C22.8726 15.442 23.1189 15.9558 23.3684 16.4852C23.4985 16.7612 23.6294 17.0414 23.7611 17.3259C23.8422 17.501 23.9236 17.6777 24.0053 17.856L24.0555 17.9586L24.6357 19.1446L24.8531 19.5894L25.2996 20.5031L25.3056 20.5154L25.4133 20.736C25.4368 20.783 25.4635 20.817 25.4935 20.8381C25.518 20.8554 25.5446 20.864 25.5733 20.864C25.615 20.864 25.6515 20.8539 25.683 20.8336C25.716 20.8122 25.7435 20.7797 25.7653 20.736L25.8731 20.5115L25.8765 20.5044L26.5317 19.1391L26.7581 18.6672L27.0603 18.0374L27.4024 17.3245L27.7966 16.5031L30.3413 11.2C30.6187 10.6453 31.0667 10.368 31.6853 10.368H32.5813C33.008 10.368 33.36 10.5067 33.6373 10.784C33.9147 11.0613 34.0533 11.4133 34.0533 11.84V19.6387V20.896V29.5863V30.528C34.0533 30.9333 33.9147 31.2853 33.6373 31.584C33.36 31.8613 33.008 32 32.5813 32H31.7173C31.312 32 30.96 31.8613 30.6613 31.584C30.384 31.2853 30.2453 30.9333 30.2453 30.528Z"/>
</mask>
<path fill-rule="evenodd" clip-rule="evenodd" d="M36.0555 3.58538L46.7001 22.3067L35.8093 40.8858L14.2739 40.7437L3.62923 22.0224L14.52 3.44325L36.0555 3.58538ZM50.1641 22.3295L37.5215 43.8972L12.522 43.7322L0.165202 21.9996L12.8078 0.431889L37.8073 0.596877L50.1641 22.3295ZM30.2453 30.528V29.5863V29.3328V28.7651V28.396V24.7243V20.992V20.9396V20.896C30.2453 20.8385 30.2259 20.7955 30.1872 20.767C30.1684 20.7533 30.1451 20.7429 30.1173 20.736C30.0947 20.7284 30.0733 20.7262 30.0533 20.7294C30.0169 20.7351 29.9849 20.7587 29.9573 20.8L29.9108 20.896L29.1913 22.38L29.1644 22.4355L28.6205 23.5572L28.2717 24.2767L27.812 25.2247L27.7959 25.2581L27.6819 25.493L27.4527 25.9659L26.8853 27.136C26.8213 27.3067 26.6827 27.456 26.4693 27.584C26.3933 27.6296 26.3187 27.6725 26.2453 27.7127C26.1129 27.7853 25.9849 27.8491 25.8613 27.904L25.6053 28C25.3472 28 25.1232 27.9561 24.9333 27.8684C24.6367 27.7313 24.4234 27.4872 24.2933 27.136L23.7173 25.948L23.4968 25.4931L23.3725 25.2369L23.3667 25.2247L22.907 24.2767L22.5542 23.5491L22.0143 22.4355L21.9988 22.4036L21.2679 20.896L21.2213 20.8C21.2028 20.7444 21.1602 20.721 21.0933 20.7298C21.0832 20.7311 21.0726 20.7332 21.0613 20.736C21.0279 20.7444 21.001 20.7576 20.9807 20.7758C20.9491 20.804 20.9333 20.8441 20.9333 20.896V20.9396V24.7237V28.3804V28.7651V29.3629V29.6672V30.528C20.9333 30.9333 20.784 31.2853 20.4853 31.584C20.208 31.8613 19.8667 32 19.4613 32H18.5653C18.16 32 17.808 31.8613 17.5093 31.584C17.232 31.2853 17.0933 30.9333 17.0933 30.528V29.6489V20.896V19.7461V11.84C17.0933 11.4133 17.232 11.0613 17.5093 10.784C17.808 10.5067 18.16 10.368 18.5653 10.368H19.4933C20.0907 10.368 20.528 10.6453 20.8053 11.2C20.912 11.4347 21.1253 11.8933 21.4453 12.576C21.7867 13.2373 22.1813 14.0267 22.6293 14.944C22.8726 15.442 23.1189 15.9558 23.3684 16.4852C23.4985 16.7612 23.6294 17.0414 23.7611 17.3259C23.8422 17.501 23.9236 17.6777 24.0053 17.856L24.0555 17.9586L24.6357 19.1446L24.8531 19.5894L25.2996 20.5031L25.3056 20.5154L25.4133 20.736C25.4368 20.783 25.4635 20.817 25.4935 20.8381C25.518 20.8554 25.5446 20.864 25.5733 20.864C25.615 20.864 25.6515 20.8539 25.683 20.8336C25.716 20.8122 25.7435 20.7797 25.7653 20.736L25.8731 20.5115L25.8765 20.5044L26.5317 19.1391L26.7581 18.6672L27.0603 18.0374L27.4024 17.3245L27.7966 16.5031L30.3413 11.2C30.6187 10.6453 31.0667 10.368 31.6853 10.368H32.5813C33.008 10.368 33.36 10.5067 33.6373 10.784C33.9147 11.0613 34.0533 11.4133 34.0533 11.84V19.6387V20.896V29.5863V30.528C34.0533 30.9333 33.9147 31.2853 33.6373 31.584C33.36 31.8613 33.008 32 32.5813 32H31.7173C31.312 32 30.96 31.8613 30.6613 31.584C30.384 31.2853 30.2453 30.9333 30.2453 30.528Z" fill="#FFDD43"/>
<path d="M46.7001 22.3067L47.5628 22.8124L47.8548 22.3143L47.5694 21.8124L46.7001 22.3067ZM36.0555 3.58538L36.9248 3.09111L36.6394 2.58921L36.0621 2.5854L36.0555 3.58538ZM35.8093 40.8858L35.8027 41.8858L36.38 41.8896L36.672 41.3915L35.8093 40.8858ZM14.2739 40.7437L13.4046 41.238L13.6899 41.7399L14.2673 41.7437L14.2739 40.7437ZM3.62923 22.0224L2.76652 21.5167L2.47455 22.0148L2.75992 22.5167L3.62923 22.0224ZM14.52 3.44325L14.5266 2.44328L13.9493 2.43947L13.6573 2.93755L14.52 3.44325ZM37.5215 43.8972L37.5149 44.8972L38.0922 44.901L38.3842 44.4029L37.5215 43.8972ZM50.1641 22.3295L51.0268 22.8352L51.3188 22.3372L51.0334 21.8353L50.1641 22.3295ZM12.522 43.7322L11.6527 44.2265L11.9381 44.7284L12.5154 44.7322L12.522 43.7322ZM0.165202 21.9996L-0.697505 21.4939L-0.989474 21.9919L-0.704105 22.4938L0.165202 21.9996ZM12.8078 0.431889L12.8144 -0.568089L12.2371 -0.5719L11.9451 -0.0738156L12.8078 0.431889ZM37.8073 0.596877L38.6766 0.102603L38.3912 -0.399291L37.8139 -0.403102L37.8073 0.596877ZM30.1872 20.767L29.5959 21.5735L29.5959 21.5735L30.1872 20.767ZM30.1173 20.736L29.8011 21.6847L29.8376 21.6968L29.8748 21.7062L30.1173 20.736ZM30.0533 20.7294L29.8977 19.7416L29.8976 19.7416L30.0533 20.7294ZM29.9573 20.8L29.1253 20.2453L29.0874 20.3022L29.0575 20.3637L29.9573 20.8ZM29.9108 20.896L30.8106 21.3323L30.8106 21.3323L29.9108 20.896ZM29.1913 22.38L28.2915 21.9437L28.2915 21.9437L29.1913 22.38ZM29.1644 22.4355L30.0642 22.8718L30.0642 22.8718L29.1644 22.4355ZM28.6205 23.5572L27.7207 23.1209L27.7207 23.1209L28.6205 23.5572ZM28.2717 24.2767L29.1715 24.713L29.1715 24.713L28.2717 24.2767ZM27.812 25.2247L26.9122 24.7884L26.9122 24.7884L27.812 25.2247ZM27.7959 25.2581L26.896 24.8218L26.896 24.8218L27.7959 25.2581ZM27.6819 25.493L28.5817 25.9293L28.5817 25.9293L27.6819 25.493ZM27.4527 25.9659L26.5529 25.5296L26.5529 25.5296L27.4527 25.9659ZM26.8853 27.136L25.9855 26.6997L25.9653 26.7415L25.949 26.7849L26.8853 27.136ZM26.4693 27.584L25.9549 26.7265L25.9549 26.7265L26.4693 27.584ZM26.2453 27.7127L26.7261 28.5896L26.7261 28.5896L26.2453 27.7127ZM25.8613 27.904L26.2125 28.8403L26.2403 28.8299L26.2675 28.8178L25.8613 27.904ZM25.6053 28V29H25.7867L25.9565 28.9363L25.6053 28ZM24.9333 27.8684L25.3529 26.9606L25.3529 26.9606L24.9333 27.8684ZM24.2933 27.136L25.2311 26.7887L25.2143 26.7433L25.1932 26.6997L24.2933 27.136ZM23.7173 25.948L22.8175 26.3843L22.8175 26.3843L23.7173 25.948ZM23.4968 25.4931L24.3966 25.0568L24.3966 25.0568L23.4968 25.4931ZM23.3725 25.2369L22.4727 25.6731L22.4727 25.6731L23.3725 25.2369ZM23.3667 25.2247L24.2665 24.7885L24.2665 24.7884L23.3667 25.2247ZM22.907 24.2767L22.0072 24.713L22.0072 24.713L22.907 24.2767ZM22.5542 23.5491L23.454 23.1128L23.454 23.1128L22.5542 23.5491ZM22.0143 22.4355L21.1145 22.8718L21.1145 22.8718L22.0143 22.4355ZM21.9988 22.4036L22.8986 21.9673L22.8986 21.9673L21.9988 22.4036ZM21.2679 20.896L20.3681 21.3323L20.3681 21.3323L21.2679 20.896ZM21.2213 20.8L20.2727 21.1163L20.2932 21.1778L20.3215 21.2363L21.2213 20.8ZM21.0933 20.7298L21.2237 21.7213L21.2237 21.7213L21.0933 20.7298ZM21.0613 20.736L21.3039 21.7061L21.3039 21.7061L21.0613 20.736ZM20.9807 20.7758L20.3142 20.0303L20.3142 20.0303L20.9807 20.7758ZM20.4853 31.584L21.1925 32.2911L21.1925 32.2911L20.4853 31.584ZM17.5093 31.584L16.7766 32.2645L16.8018 32.2916L16.8289 32.3168L17.5093 31.584ZM17.5093 10.784L16.8289 10.0512L16.8153 10.0638L16.8022 10.0769L17.5093 10.784ZM20.8053 11.2L21.7157 10.7862L21.7081 10.7693L21.6998 10.7528L20.8053 11.2ZM21.4453 12.576L20.5399 13.0004L20.548 13.0177L20.5567 13.0346L21.4453 12.576ZM22.6293 14.944L21.7308 15.3828L21.7308 15.3828L22.6293 14.944ZM23.3684 16.4852L24.273 16.0589L24.273 16.0589L23.3684 16.4852ZM23.7611 17.3259L22.8537 17.7462L22.8537 17.7462L23.7611 17.3259ZM24.0053 17.856L23.0963 18.2727L23.1016 18.2842L23.1071 18.2955L24.0053 17.856ZM24.0555 17.9586L24.9538 17.5192L24.9538 17.519L24.0555 17.9586ZM24.6357 19.1446L25.5341 18.7054L25.534 18.7052L24.6357 19.1446ZM24.8531 19.5894L25.7516 19.1504L25.7515 19.1502L24.8531 19.5894ZM25.2996 20.5031L26.1982 20.0643L26.1981 20.0641L25.2996 20.5031ZM25.3056 20.5154L24.407 20.9542L24.407 20.9542L25.3056 20.5154ZM25.4133 20.736L24.5148 21.1749L24.5189 21.1832L25.4133 20.736ZM25.4935 20.8381L26.0697 20.0209L26.0697 20.0208L25.4935 20.8381ZM25.683 20.8336L25.1409 19.9932L25.1409 19.9932L25.683 20.8336ZM25.7653 20.736L26.6598 21.1832L26.6634 21.176L26.6669 21.1686L25.7653 20.736ZM25.8731 20.5115L24.9716 20.0787L24.9715 20.0788L25.8731 20.5115ZM25.8765 20.5044L26.778 20.9372L26.778 20.9371L25.8765 20.5044ZM26.5317 19.1391L25.6301 18.7064L25.6301 18.7064L26.5317 19.1391ZM26.7581 18.6672L27.6597 19.0998L27.6597 19.0998L26.7581 18.6672ZM27.0603 18.0374L26.1588 17.6047L26.1588 17.6047L27.0603 18.0374ZM27.4024 17.3245L26.5009 16.8918L26.5009 16.8918L27.4024 17.3245ZM27.7966 16.5031L28.6981 16.9358L28.6981 16.9358L27.7966 16.5031ZM30.3413 11.2L29.4469 10.7528L29.4433 10.76L29.4398 10.7674L30.3413 11.2ZM33.6373 10.784L32.9302 11.4911L32.9302 11.4911L33.6373 10.784ZM33.6373 31.584L34.3445 32.2911L34.3575 32.278L34.3701 32.2645L33.6373 31.584ZM30.6613 31.584L29.9286 32.2645L29.9538 32.2916L29.9809 32.3168L30.6613 31.584ZM47.5694 21.8124L36.9248 3.09111L35.1862 4.07965L45.8308 22.8009L47.5694 21.8124ZM36.672 41.3915L47.5628 22.8124L45.8374 21.801L34.9466 40.3801L36.672 41.3915ZM14.2673 41.7437L35.8027 41.8858L35.8159 39.8859L14.2805 39.7437L14.2673 41.7437ZM2.75992 22.5167L13.4046 41.238L15.1432 40.2494L4.49853 21.5281L2.75992 22.5167ZM13.6573 2.93755L2.76652 21.5167L4.49193 22.5281L15.3827 3.94896L13.6573 2.93755ZM36.0621 2.5854L14.5266 2.44328L14.5134 4.44323L36.0489 4.58536L36.0621 2.5854ZM38.3842 44.4029L51.0268 22.8352L49.3014 21.8238L36.6588 43.3915L38.3842 44.4029ZM12.5154 44.7322L37.5149 44.8972L37.5281 42.8972L12.5286 42.7322L12.5154 44.7322ZM-0.704105 22.4938L11.6527 44.2265L13.3914 43.2379L1.03451 21.5053L-0.704105 22.4938ZM11.9451 -0.0738156L-0.697505 21.4939L1.02791 22.5053L13.6705 0.937593L11.9451 -0.0738156ZM37.8139 -0.403102L12.8144 -0.568089L12.8012 1.43187L37.8007 1.59685L37.8139 -0.403102ZM51.0334 21.8353L38.6766 0.102603L36.938 1.09115L49.2948 22.8238L51.0334 21.8353ZM29.2453 29.5863V30.528H31.2453V29.5863H29.2453ZM29.2453 29.3328V29.5863H31.2453V29.3328H29.2453ZM29.2453 28.7651V29.3328H31.2453V28.7651H29.2453ZM29.2453 28.396V28.7651H31.2453V28.396H29.2453ZM29.2453 24.7243V28.396H31.2453V24.7243H29.2453ZM29.2453 20.992V24.7243H31.2453V20.992H29.2453ZM29.2453 20.9396V20.992H31.2453V20.9396H29.2453ZM29.2453 20.896V20.9396H31.2453V20.896H29.2453ZM29.5959 21.5735C29.4792 21.4879 29.382 21.3708 29.3193 21.2319C29.2593 21.0989 29.2453 20.9785 29.2453 20.896H31.2453C31.2453 20.5905 31.1262 20.2155 30.7784 19.9605L29.5959 21.5735ZM29.8748 21.7062C29.8052 21.6888 29.7029 21.652 29.5959 21.5735L30.7784 19.9606C30.6339 19.8546 30.485 19.7971 30.3599 19.7658L29.8748 21.7062ZM30.209 21.7172C30.0446 21.7431 29.903 21.7186 29.8011 21.6847L30.4336 19.7873C30.2864 19.7382 30.1021 19.7094 29.8977 19.7416L30.209 21.7172ZM30.7894 21.3547C30.7179 21.462 30.5346 21.6659 30.209 21.7172L29.8976 19.7416C29.4992 19.8044 29.2519 20.0554 29.1253 20.2453L30.7894 21.3547ZM30.8106 21.3323L30.8572 21.2363L29.0575 20.3637L29.011 20.4597L30.8106 21.3323ZM30.0911 22.8163L30.8106 21.3323L29.011 20.4597L28.2915 21.9437L30.0911 22.8163ZM30.0642 22.8718L30.0911 22.8162L28.2915 21.9437L28.2645 21.9993L30.0642 22.8718ZM29.5204 23.9934L30.0642 22.8718L28.2646 21.9992L27.7207 23.1209L29.5204 23.9934ZM29.1715 24.713L29.5204 23.9934L27.7207 23.1209L27.3718 23.8405L29.1715 24.713ZM28.7118 25.661L29.1715 24.713L27.3718 23.8405L26.9122 24.7884L28.7118 25.661ZM28.6957 25.6943L28.7118 25.661L26.9122 24.7884L26.896 24.8218L28.6957 25.6943ZM28.5817 25.9293L28.6957 25.6943L26.896 24.8218L26.7821 25.0568L28.5817 25.9293ZM28.3525 26.4022L28.5817 25.9293L26.7821 25.0568L26.5529 25.5296L28.3525 26.4022ZM27.7852 27.5723L28.3525 26.4022L26.5529 25.5296L25.9855 26.6997L27.7852 27.5723ZM26.9838 28.4415C27.3208 28.2393 27.6537 27.935 27.8217 27.4871L25.949 26.7849C25.958 26.7608 25.9686 26.7407 25.9785 26.7249C25.9884 26.7094 25.9966 26.6998 26.0006 26.6955C26.0076 26.688 25.9979 26.7007 25.9549 26.7265L26.9838 28.4415ZM26.7261 28.5896C26.8114 28.5428 26.8974 28.4934 26.9838 28.4415L25.9549 26.7265C25.8893 26.7658 25.8259 26.8023 25.7646 26.8359L26.7261 28.5896ZM26.2675 28.8178C26.4192 28.7504 26.5721 28.674 26.7261 28.5896L25.7646 26.8359C25.6538 26.8966 25.5507 26.9477 25.4552 26.9902L26.2675 28.8178ZM25.9565 28.9363L26.2125 28.8403L25.5102 26.9677L25.2542 27.0637L25.9565 28.9363ZM24.5138 28.7761C24.8623 28.9372 25.2354 29 25.6053 29V27C25.459 27 25.3842 26.9751 25.3529 26.9606L24.5138 28.7761ZM23.3556 27.4833C23.563 28.0432 23.9416 28.5117 24.5138 28.7761L25.3529 26.9606C25.3319 26.9509 25.2839 26.9312 25.2311 26.7887L23.3556 27.4833ZM22.8175 26.3843L23.3935 27.5723L25.1932 26.6997L24.6172 25.5117L22.8175 26.3843ZM22.597 25.9293L22.8175 26.3843L24.6172 25.5117L24.3966 25.0568L22.597 25.9293ZM22.4727 25.6731L22.597 25.9293L24.3966 25.0568L24.2724 24.8006L22.4727 25.6731ZM22.4668 25.6609L22.4727 25.6731L24.2724 24.8006L24.2665 24.7885L22.4668 25.6609ZM22.0072 24.713L22.4669 25.661L24.2665 24.7884L23.8068 23.8404L22.0072 24.713ZM21.6544 23.9853L22.0072 24.713L23.8068 23.8405L23.454 23.1128L21.6544 23.9853ZM21.1145 22.8718L21.6544 23.9853L23.454 23.1128L22.9141 21.9992L21.1145 22.8718ZM21.099 22.8398L21.1145 22.8718L22.9141 21.9992L22.8986 21.9673L21.099 22.8398ZM20.3681 21.3323L21.099 22.8398L22.8986 21.9673L22.1677 20.4597L20.3681 21.3323ZM20.3215 21.2363L20.3681 21.3323L22.1677 20.4597L22.1212 20.3637L20.3215 21.2363ZM21.2237 21.7213C21.1256 21.7342 20.9192 21.7408 20.6946 21.6175C20.4515 21.4842 20.3259 21.276 20.2727 21.1163L22.17 20.4837C22.0982 20.2684 21.9421 20.0207 21.6563 19.864C21.389 19.7174 21.1279 19.7166 20.963 19.7383L21.2237 21.7213ZM21.3039 21.7061C21.283 21.7114 21.256 21.717 21.2237 21.7213L20.963 19.7383C20.9105 19.7452 20.8622 19.755 20.8188 19.7659L21.3039 21.7061ZM21.6472 21.5213C21.5189 21.6361 21.3874 21.6853 21.3039 21.7061L20.8188 19.7659C20.6684 19.8035 20.4832 19.8792 20.3142 20.0303L21.6472 21.5213ZM21.9333 20.896C21.9333 20.9704 21.9221 21.0756 21.8756 21.1936C21.8273 21.3162 21.7497 21.4296 21.6472 21.5213L20.3142 20.0303C20.0236 20.2901 19.9333 20.6289 19.9333 20.896H21.9333ZM21.9333 20.9396V20.896H19.9333V20.9396H21.9333ZM21.9333 24.7237V20.9396H19.9333V24.7237H21.9333ZM21.9333 28.3804V24.7237H19.9333V28.3804H21.9333ZM21.9333 28.7651V28.3804H19.9333V28.7651H21.9333ZM21.9333 29.3629V28.7651H19.9333V29.3629H21.9333ZM21.9333 29.6672V29.3629H19.9333V29.6672H21.9333ZM21.9333 30.528V29.6672H19.9333V30.528H21.9333ZM21.1925 32.2911C21.6699 31.8137 21.9333 31.2107 21.9333 30.528H19.9333C19.9333 30.6559 19.8982 30.757 19.7782 30.8769L21.1925 32.2911ZM19.4613 33C20.122 33 20.7207 32.7629 21.1925 32.2911L19.7782 30.8769C19.6953 30.9598 19.6114 31 19.4613 31V33ZM18.5653 33H19.4613V31H18.5653V33ZM16.8289 32.3168C17.3114 32.7648 17.9061 33 18.5653 33V31C18.414 31 18.3046 30.9578 18.1898 30.8512L16.8289 32.3168ZM16.0933 30.528C16.0933 31.1873 16.3285 31.782 16.7766 32.2645L18.2421 30.9035C18.1355 30.7887 18.0933 30.6794 18.0933 30.528H16.0933ZM16.0933 29.6489V30.528H18.0933V29.6489H16.0933ZM16.0933 20.896V29.6489H18.0933V20.896H16.0933ZM16.0933 19.7461V20.896H18.0933V19.7461H16.0933ZM16.0933 11.84V19.7461H18.0933V11.84H16.0933ZM16.8022 10.0769C16.32 10.5592 16.0933 11.1738 16.0933 11.84H18.0933C18.0933 11.6529 18.1441 11.5635 18.2165 11.4911L16.8022 10.0769ZM18.5653 9.368C17.9061 9.368 17.3114 9.60317 16.8289 10.0512L18.1898 11.5168C18.3046 11.4102 18.414 11.368 18.5653 11.368V9.368ZM19.4933 9.368H18.5653V11.368H19.4933V9.368ZM21.6998 10.7528C21.496 10.3451 21.2049 9.98518 20.8049 9.73149C20.4027 9.47642 19.9519 9.368 19.4933 9.368V11.368C19.6321 11.368 19.6987 11.3982 19.7338 11.4205C19.7711 11.4442 19.8374 11.5002 19.9109 11.6472L21.6998 10.7528ZM22.3508 12.1516C22.0304 11.4681 21.8196 11.0147 21.7157 10.7862L19.895 11.6138C20.0045 11.8547 20.2203 12.3185 20.5399 13.0004L22.3508 12.1516ZM23.5279 14.5052C23.0778 13.5834 22.6797 12.7872 22.334 12.1174L20.5567 13.0346C20.8937 13.6875 21.2849 14.4699 21.7308 15.3828L23.5279 14.5052ZM24.273 16.0589C24.0217 15.5255 23.7733 15.0076 23.5279 14.5052L21.7308 15.3828C21.9719 15.8765 22.2162 16.386 22.4639 16.9115L24.273 16.0589ZM24.6686 16.9057C24.5359 16.6192 24.4041 16.337 24.273 16.0589L22.4639 16.9115C22.5929 17.1854 22.7229 17.4636 22.8537 17.7462L24.6686 16.9057ZM24.9144 17.4393C24.8321 17.2599 24.7502 17.082 24.6686 16.9057L22.8537 17.7462C22.9342 17.92 23.0151 18.0955 23.0963 18.2727L24.9144 17.4393ZM24.9538 17.519L24.9036 17.4165L23.1071 18.2955L23.1573 18.3981L24.9538 17.519ZM25.534 18.7052L24.9538 17.5192L23.1573 18.398L23.7374 19.584L25.534 18.7052ZM25.7515 19.1502L25.5341 18.7054L23.7373 19.5838L23.9547 20.0286L25.7515 19.1502ZM26.1981 20.0641L25.7516 19.1504L23.9547 20.0284L24.4011 20.9422L26.1981 20.0641ZM26.2042 20.0766L26.1982 20.0643L24.401 20.9419L24.407 20.9542L26.2042 20.0766ZM26.3119 20.2971L26.2041 20.0765L24.407 20.9542L24.5148 21.1749L26.3119 20.2971ZM26.0697 20.0208C26.2206 20.1272 26.2873 20.2479 26.3078 20.2888L24.5189 21.1832C24.5863 21.318 24.7065 21.5068 24.9173 21.6554L26.0697 20.0208ZM25.5733 19.864C25.7595 19.864 25.9328 19.9243 26.0697 20.0209L24.9172 21.6554C25.1031 21.7865 25.3296 21.864 25.5733 21.864V19.864ZM25.1409 19.9932C25.2887 19.8979 25.4449 19.864 25.5733 19.864V21.864C25.785 21.864 26.0143 21.8098 26.225 21.6739L25.1409 19.9932ZM24.8709 20.2888C24.9099 20.2108 24.9909 20.09 25.1409 19.9932L26.225 21.6739C26.4411 21.5345 26.5771 21.3486 26.6598 21.1832L24.8709 20.2888ZM24.9715 20.0788L24.8638 20.3034L26.6669 21.1686L26.7747 20.9441L24.9715 20.0788ZM24.975 20.0717L24.9716 20.0787L26.7746 20.9443L26.778 20.9372L24.975 20.0717ZM25.6301 18.7064L24.9749 20.0718L26.778 20.9371L27.4332 19.5717L25.6301 18.7064ZM25.8565 18.2345L25.6301 18.7064L27.4332 19.5717L27.6597 19.0998L25.8565 18.2345ZM26.1588 17.6047L25.8565 18.2345L27.6597 19.0998L27.9619 18.47L26.1588 17.6047ZM26.5009 16.8918L26.1588 17.6047L27.9619 18.47L28.304 17.7571L26.5009 16.8918ZM26.895 16.0705L26.5009 16.8918L28.304 17.7571L28.6981 16.9358L26.895 16.0705ZM29.4398 10.7674L26.895 16.0705L28.6981 16.9358L31.2429 11.6326L29.4398 10.7674ZM31.6853 9.368C31.2229 9.368 30.7669 9.47323 30.359 9.72573C29.9512 9.97815 29.6537 10.3393 29.4469 10.7528L31.2358 11.6472C31.3064 11.506 31.3715 11.4512 31.4117 11.4263C31.4518 11.4014 31.5291 11.368 31.6853 11.368V9.368ZM32.5813 9.368H31.6853V11.368H32.5813V9.368ZM34.3445 10.0769C33.8622 9.59461 33.2475 9.368 32.5813 9.368V11.368C32.7685 11.368 32.8579 11.4187 32.9302 11.4911L34.3445 10.0769ZM35.0533 11.84C35.0533 11.1738 34.8267 10.5592 34.3444 10.0769L32.9302 11.4911C33.0026 11.5635 33.0533 11.6529 33.0533 11.84H35.0533ZM35.0533 19.6387V11.84H33.0533V19.6387H35.0533ZM35.0533 20.896V19.6387H33.0533V20.896H35.0533ZM35.0533 29.5863V20.896H33.0533V29.5863H35.0533ZM35.0533 30.528V29.5863H33.0533V30.528H35.0533ZM34.3701 32.2645C34.8182 31.782 35.0533 31.1873 35.0533 30.528H33.0533C33.0533 30.6794 33.0112 30.7887 32.9046 30.9035L34.3701 32.2645ZM32.5813 33C33.2475 33 33.8622 32.7734 34.3445 32.2911L32.9302 30.8769C32.8579 30.9493 32.7685 31 32.5813 31V33ZM31.7173 33H32.5813V31H31.7173V33ZM29.9809 32.3168C30.4634 32.7648 31.0581 33 31.7173 33V31C31.566 31 31.4566 30.9578 31.3418 30.8512L29.9809 32.3168ZM29.2453 30.528C29.2453 31.1873 29.4805 31.782 29.9286 32.2645L31.3941 30.9035C31.2875 30.7887 31.2453 30.6794 31.2453 30.528H29.2453Z" fill="#FFDD43" mask="url(#path-1-inside-1_105_31)"/>
</svg>
